<?xml version="1.0" encoding="UTF-8"?>
<svg width="485px" height="317px" viewBox="0 0 485 317" version="1.1" xmlns="http://www.w3.org/2000/svg" xmlns:xlink="http://www.w3.org/1999/xlink">
    <!-- Generator: Sketch 52.5 (67469) - http://www.bohemiancoding.com/sketch -->
    <title>glitch-witch-large</title>
    <desc>Created with Sketch.</desc>
    <defs>
        <path d="M0.708888601,222.319849 C25.6685765,179.580025 40.552942,150.523681 45.3619851,135.150817 C49.7549771,121.107925 66.9070152,123.90746 63.0630315,107.702203 C54.3591825,71.008989 77.939126,75.6097381 89.6314184,60.1703812 C101.323711,44.7310244 107.714379,-14.372739 164.242863,21.684104 C194.574341,41.0311175 175.592013,-5.65260363 232.613766,0.756861595 C257.15065,3.51490216 256.576708,20.0928765 279.143572,24.2672549 C293.618574,26.9448151 306.584347,12.7409347 331.84852,20.6849801 C360.247554,29.6147482 357.798176,55.8051073 370.255139,74.9678596 C378.022192,86.9160467 403.99647,83.2864137 408.273929,104.187755 C412.551389,125.089097 407.515825,131.616202 389.178586,147.310282 C370.841346,163.004362 394.209625,185.304263 363.015987,196.798719 C331.822349,208.293175 331.719152,175.736911 297.97714,172.776252 C264.235128,169.815592 275.132045,192.91475 247.599643,193.272861 C220.067242,193.630971 215.382588,176.968719 190.32712,184.017833 C172.38422,189.065894 174.953194,220.085888 152.059613,228.381599 C122.001369,239.273495 92.8032127,219.931633 82.2155576,216.986586 C49.30421,207.832013 48.4606131,197.146147 38.1902557,199.48888 C21.0024237,203.409533 8.50863461,211.019856 0.708888601,222.319849 Z" id="path-1"></path>
        <path d="M2.05695313,37.0920709 L2.05695313,28.7720709 L0.276953125,28.7720709 L0.276953125,26.4320709 L2.05695313,26.4320709 L2.05695313,25.6920709 C2.05695313,23.9120709 2.59695313,22.2120709 5.75695313,22.2120709 C6.37695313,22.2120709 7.51695313,22.3120709 7.69695313,22.3520709 L7.69695313,24.5920709 C7.53695313,24.5520709 7.07695313,24.5120709 6.75695313,24.5120709 C5.97695313,24.5120709 5.25695313,24.6520709 5.25695313,25.7920709 L5.25695313,26.4320709 L7.57695313,26.4320709 L7.57695313,28.7720709 L5.25695313,28.7720709 L5.25695313,37.0920709 L2.05695313,37.0920709 Z M9.19695313,37.0920709 L9.19695313,26.4320709 L12.4169531,26.4320709 L12.4169531,28.2120709 L12.4369531,28.2120709 C13.0169531,27.3120709 14.0369531,26.2120709 16.0369531,26.2120709 L16.1369531,26.2120709 L16.0969531,29.0720709 C15.9769531,29.0520709 15.4569531,29.0120709 15.2569531,29.0120709 C13.9769531,29.0120709 13.0169531,29.6920709 12.4169531,30.4720709 L12.4169531,37.0920709 L9.19695313,37.0920709 Z M17.7569531,24.9720709 L17.7569531,22.3920709 L20.9969531,22.3920709 L20.9969531,24.9720709 L17.7569531,24.9720709 Z M17.7769531,37.0920709 L17.7769531,26.4320709 L20.9769531,26.4320709 L20.9769531,37.0920709 L17.7769531,37.0920709 Z M28.3969531,37.3120709 C25.6169531,37.3120709 22.9569531,35.8920709 22.9569531,31.7720709 C22.9569531,27.6320709 26.1169531,26.2120709 28.3169531,26.2120709 C30.5169531,26.2120709 33.2169531,27.3120709 33.2169531,32.1520709 L33.2169531,32.6320709 L26.1569531,32.6320709 C26.3169531,34.3920709 27.2969531,35.0720709 28.6369531,35.0720709 C29.8969531,35.0720709 31.0769531,34.4520709 31.7969531,33.7920709 L33.0369531,35.7120709 C31.7969531,36.7720709 30.2569531,37.3120709 28.3969531,37.3120709 Z M26.1969531,30.7320709 L30.3369531,30.7320709 C30.1769531,29.2320709 29.4969531,28.5120709 28.2969531,28.5120709 C27.2969531,28.5120709 26.4369531,29.1720709 26.1969531,30.7320709 Z M35.0969531,37.0920709 L35.0969531,26.4320709 L38.3169531,26.4320709 L38.3169531,28.1120709 C38.9569531,27.2720709 40.1369531,26.2120709 41.9969531,26.2120709 C43.7969531,26.2120709 45.0969531,27.1120709 45.0969531,29.3120709 L45.0969531,37.0920709 L41.8969531,37.0920709 L41.8969531,30.3320709 C41.8969531,29.3720709 41.5369531,28.8720709 40.6369531,28.8720709 C39.7769531,28.8720709 39.0369531,29.3120709 38.3169531,29.9320709 L38.3169531,37.0920709 L35.0969531,37.0920709 Z M50.9569531,37.2520709 C48.5369531,37.2520709 46.8569531,35.5320709 46.8569531,31.8520709 C46.8569531,28.1720709 48.5569531,26.2120709 50.9969531,26.2120709 C52.4369531,26.2120709 53.4769531,26.7320709 54.2369531,27.7720709 L54.2369531,22.2920709 L57.4569531,22.2920709 L57.4569531,34.4920709 C57.4569531,35.7720709 57.5369531,36.5520709 57.7769531,37.0920709 L54.4769531,37.0920709 C54.3369531,36.8320709 54.2369531,36.0320709 54.2369531,35.4920709 C53.5369531,36.4520709 52.5369531,37.2520709 50.9569531,37.2520709 Z M52.1569531,34.8320709 C52.9769531,34.8320709 53.7169531,34.3320709 54.2369531,33.7920709 L54.2369531,29.8520709 C53.5369531,29.1920709 52.9569531,28.8720709 52.1169531,28.8720709 C50.7769531,28.8720709 50.0769531,29.8920709 50.0769531,31.8320709 C50.0769531,33.6120709 50.7169531,34.8320709 52.1569531,34.8320709 Z M60.0369531,37.0920709 L60.0369531,22.2920709 L63.2369531,22.2920709 L63.2369531,37.0920709 L60.0369531,37.0920709 Z M67.4769531,41.1720709 C65.8969531,41.1720709 64.9969531,40.9520709 64.4369531,40.7920709 L65.1169531,38.3120709 C65.4169531,38.3920709 66.1769531,38.5920709 67.1369531,38.5920709 C67.8369531,38.5920709 68.2369531,38.3320709 68.4969531,37.6720709 L68.6969531,37.1520709 L64.6169531,26.4320709 L67.9369531,26.4320709 L70.2769531,33.3520709 L70.3169531,33.3520709 L72.6769531,26.4320709 L75.7969531,26.4320709 L71.3169531,38.2120709 C70.5969531,40.0520709 69.6169531,41.1720709 67.4769531,41.1720709 Z M87.0369531,37.3120709 C84.5369531,37.3120709 81.7969531,35.9120709 81.7969531,31.7720709 C81.7969531,27.5120709 84.8169531,26.2120709 87.1769531,26.2120709 C90.0769531,26.2120709 91.1969531,27.7520709 91.8169531,29.4720709 L89.1169531,30.3720709 C88.6969531,29.0120709 88.0769531,28.5720709 87.1369531,28.5720709 C85.8369531,28.5720709 85.0169531,29.6720709 85.0169531,31.7920709 C85.0169531,33.6920709 85.6169531,35.0520709 87.0969531,35.0520709 C87.9569531,35.0520709 88.7369531,34.5920709 89.1969531,33.1520709 L91.8569531,34.0720709 C91.1769531,35.7320709 89.8569531,37.3120709 87.0369531,37.3120709 Z M98.3569531,37.3120709 C95.7769531,37.3120709 92.8969531,35.9120709 92.8969531,31.7720709 C92.8969531,27.5920709 95.7569531,26.2120709 98.3569531,26.2120709 C100.936953,26.2120709 103.796953,27.5920709 103.796953,31.7720709 C103.796953,35.9120709 100.936953,37.3120709 98.3569531,37.3120709 Z M98.3569531,35.0520709 C99.8769531,35.0520709 100.576953,33.7320709 100.576953,31.7920709 C100.576953,30.0120709 99.9569531,28.5720709 98.3569531,28.5720709 C96.8169531,28.5720709 96.1169531,29.8720709 96.1169531,31.7920709 C96.1169531,33.5720709 96.7169531,35.0520709 98.3569531,35.0520709 Z M105.656953,37.0920709 L105.656953,26.4320709 L108.876953,26.4320709 L108.876953,28.1120709 C109.516953,27.2720709 110.696953,26.2120709 112.376953,26.2120709 C114.156953,26.2120709 114.996953,26.9520709 115.296953,28.1120709 C115.936953,27.2920709 117.136953,26.2120709 118.816953,26.2120709 C120.976953,26.2120709 121.936953,27.5720709 121.936953,29.4720709 L121.936953,37.0920709 L118.716953,37.0920709 L118.716953,30.3320709 C118.716953,29.3720709 118.496953,28.8720709 117.556953,28.8720709 C116.756953,28.8720709 116.116953,29.3120709 115.416953,29.9320709 L115.416953,37.0920709 L112.196953,37.0920709 L112.196953,30.3320709 C112.196953,29.3720709 111.976953,28.8720709 111.036953,28.8720709 C110.236953,28.8720709 109.596953,29.3120709 108.876953,29.9320709 L108.876953,37.0920709 L105.656953,37.0920709 Z M124.296953,37.0920709 L124.296953,26.4320709 L127.516953,26.4320709 L127.516953,28.1120709 C128.156953,27.2720709 129.336953,26.2120709 131.016953,26.2120709 C132.796953,26.2120709 133.636953,26.9520709 133.936953,28.1120709 C134.576953,27.2920709 135.776953,26.2120709 137.456953,26.2120709 C139.616953,26.2120709 140.576953,27.5720709 140.576953,29.4720709 L140.576953,37.0920709 L137.356953,37.0920709 L137.356953,30.3320709 C137.356953,29.3720709 137.136953,28.8720709 136.196953,28.8720709 C135.396953,28.8720709 134.756953,29.3120709 134.056953,29.9320709 L134.056953,37.0920709 L130.836953,37.0920709 L130.836953,30.3320709 C130.836953,29.3720709 130.616953,28.8720709 129.676953,28.8720709 C128.876953,28.8720709 128.236953,29.3120709 127.516953,29.9320709 L127.516953,37.0920709 L124.296953,37.0920709 Z M145.956953,37.3120709 C144.136953,37.3120709 142.836953,36.4120709 142.836953,34.2120709 L142.836953,26.4320709 L146.056953,26.4320709 L146.056953,33.2720709 C146.056953,34.2320709 146.416953,34.7520709 147.316953,34.7520709 C148.176953,34.7520709 148.916953,34.2920709 149.636953,33.6720709 L149.636953,26.4320709 L152.856953,26.4320709 L152.856953,37.0920709 L149.636953,37.0920709 L149.636953,35.4320709 C148.996953,36.2520709 147.816953,37.3120709 145.956953,37.3120709 Z M155.316953,37.0920709 L155.316953,26.4320709 L158.536953,26.4320709 L158.536953,28.1120709 C159.176953,27.2720709 160.356953,26.2120709 162.216953,26.2120709 C164.016953,26.2120709 165.316953,27.1120709 165.316953,29.3120709 L165.316953,37.0920709 L162.116953,37.0920709 L162.116953,30.3320709 C162.116953,29.3720709 161.756953,28.8720709 160.856953,28.8720709 C159.996953,28.8720709 159.256953,29.3120709 158.536953,29.9320709 L158.536953,37.0920709 L155.316953,37.0920709 Z M167.756953,24.9720709 L167.756953,22.3920709 L170.996953,22.3920709 L170.996953,24.9720709 L167.756953,24.9720709 Z M167.776953,37.0920709 L167.776953,26.4320709 L170.976953,26.4320709 L170.976953,37.0920709 L167.776953,37.0920709 Z M178.016953,37.2320709 C174.856953,37.2320709 174.396953,36.0920709 174.396953,34.0920709 L174.396953,28.7720709 L172.616953,28.7720709 L172.616953,26.4320709 L174.396953,26.4320709 L174.396953,22.7720709 L177.596953,22.7720709 L177.596953,26.4320709 L180.336953,26.4320709 L180.336953,28.7720709 L177.596953,28.7720709 L177.596953,33.3920709 C177.596953,34.5320709 177.916953,34.8920709 179.076953,34.8920709 C179.436953,34.8920709 179.916953,34.8520709 180.136953,34.7720709 L180.136953,37.0720709 C179.896953,37.1320709 178.716953,37.2320709 178.016953,37.2320709 Z M183.756953,41.1720709 C182.176953,41.1720709 181.276953,40.9520709 180.716953,40.7920709 L181.396953,38.3120709 C181.696953,38.3920709 182.456953,38.5920709 183.416953,38.5920709 C184.116953,38.5920709 184.516953,38.3320709 184.776953,37.6720709 L184.976953,37.1520709 L180.896953,26.4320709 L184.216953,26.4320709 L186.556953,33.3520709 L186.596953,33.3520709 L188.956953,26.4320709 L192.076953,26.4320709 L187.596953,38.2120709 C186.876953,40.0520709 185.896953,41.1720709 183.756953,41.1720709 Z" id="path-2"></path>
    </defs>
    <g id="Kiki" stroke="none" stroke-width="1" fill="none" fill-rule="evenodd">
        <g id="option-1-copy-10" transform="translate(-64.000000, -169.000000)">
            <g id="glitch-witch-large" transform="translate(59.000000, 168.464844)">
                <g id="glitch-kiki-illustration" transform="translate(245.932741, 159.549559) rotate(-1.000000) translate(-245.932741, -159.549559) translate(3.432741, 4.549559)">
                    <g id="background-blob" transform="translate(75.000000, 0.000000)">
                        <g id="Path-46-Copy-3">
                            <use fill="#4A3AC7" fill-rule="evenodd" xlink:href="#path-1"></use>
                            <path stroke="#000000" stroke-width="2.5" d="M-0.370525757,221.689481 C24.5413313,179.03156 39.3976588,150.02995 44.1689961,134.777618 C45.6887668,129.919431 48.4026326,126.88472 53.2739975,123.484785 C53.8347092,123.093441 55.7141408,121.818109 55.7953158,121.762395 C61.801129,117.640394 63.4482865,114.742247 61.8467805,107.990705 C59.0459997,96.1833255 59.3546654,87.8857955 62.4482537,81.779657 C64.8728928,76.9938934 68.133032,74.2517342 75.2585048,69.9549247 C75.5342353,69.7886535 76.4787526,69.2207451 76.5388209,69.184585 C77.047829,68.8781706 77.4384176,68.6418074 77.817802,68.4100966 C82.9998411,65.2451425 86.0476651,62.8321353 88.6349231,59.415731 C89.6323081,58.0987109 90.6484609,56.3652259 91.7692978,54.1084828 C93.0608591,51.5079956 98.2803399,39.390267 99.6863616,36.4269255 C105.819702,23.5002539 112.150267,15.4065444 121.044856,11.4155117 C132.334794,6.34967745 146.642979,8.97533488 164.915074,20.6302385 C174.980564,27.0505383 179.018092,26.5322926 183.787573,20.3449286 C184.090023,19.9525654 188.113936,14.3007048 189.602945,12.487116 C198.418958,1.74935159 210.645002,-2.9703842 232.753391,-0.485315811 C243.713923,0.746690354 249.089568,3.72878275 258.143568,11.6548428 C258.256986,11.754135 258.256986,11.754135 258.370326,11.8533541 C266.277873,18.7753053 270.72663,21.4390983 279.370937,23.0381069 C280.807333,23.3038089 282.272187,23.400667 283.806327,23.3420719 C287.419535,23.2040686 289.132489,22.783172 297.844435,20.2257682 C311.216137,16.300487 319.949589,15.6331513 332.22347,19.4925403 C341.389712,22.3747657 347.931681,27.14009 352.819887,33.9402692 C356.525126,39.0947759 358.635778,43.8791223 362.420842,54.4185538 C362.628648,54.9973311 362.738177,55.3023649 362.836517,55.5759562 C362.993741,56.0133695 363.126098,56.3807875 363.253213,56.7324647 C366.226466,64.9582725 368.293684,69.6570456 371.303164,74.286579 C373.655255,77.904839 377.253242,79.9044989 385.64162,83.0179049 C385.946266,83.1309766 387.043541,83.5369802 387.267233,83.6199355 C387.90972,83.8581994 388.418146,84.048171 388.910294,84.2344046 C394.70236,86.4261803 398.348387,88.2243491 401.558414,90.7990775 C405.68068,94.1055033 408.354603,98.3473728 409.498548,103.937137 C413.604882,124.00229 410.23632,130.933146 389.991371,148.259955 C384.335704,153.100406 382.575198,158.275425 382.308992,167.112619 C382.284678,167.919771 382.272666,168.564096 382.250916,170.029786 C382.134317,177.886955 381.703907,181.314175 379.702235,185.372463 C377.060416,190.728616 371.950022,194.838805 363.448187,197.971623 C349.971998,202.937426 341.90906,200.753228 331.603042,191.986627 C330.442386,190.999339 326.40755,187.426282 325.741364,186.849588 C316.506596,178.855363 309.111117,175.007994 297.86788,174.021467 C289.707033,173.305402 283.877064,174.087841 279.449287,176.179487 C276.115632,177.754279 274.157221,179.500625 270.393987,183.726912 C270.344657,183.782313 270.344657,183.782313 270.29529,183.837758 C266.85154,187.705427 265.083207,189.375901 262.193919,191.058266 C258.387995,193.274366 253.738407,194.44312 247.615901,194.522755 C237.696944,194.651769 230.969792,192.967234 221.413653,188.929325 C220.822164,188.679394 218.800459,187.816554 218.791315,187.812664 C217.764244,187.375838 216.989897,187.052195 216.236059,186.747117 C207.219673,183.098197 200.650255,182.412047 190.665652,185.221118 C184.322803,187.005617 180.828989,191.48744 175.606413,202.495284 C175.437391,202.85154 175.265161,203.21603 175.032349,203.7098 C174.744086,204.321427 174.589727,204.648906 174.453887,204.93665 C173.98181,205.936637 173.626768,206.682315 173.272408,207.41501 C167.351287,219.657835 161.979582,226.116537 152.485466,229.556821 C135.654159,235.655809 118.857485,233.340054 99.046264,225.306467 C97.8317169,224.81396 84.1852199,218.831921 81.8805771,218.190865 C78.5089556,217.25302 75.3686994,216.270773 72.4345285,215.244161 C64.6877311,212.533698 58.8938264,209.748191 53.2555737,206.346942 C51.9395174,205.553037 48.2789652,203.239849 47.8291589,202.965408 C46.1258789,201.926185 44.9377634,201.312686 43.8064848,200.919461 C42.1017901,200.32692 40.4876062,200.246948 38.468248,200.707576 C21.5674597,204.562753 9.34598431,212.007202 1.73762167,223.029926 L-0.370525757,221.689481 Z"></path>
                            <path stroke="#897AFF" stroke-width="3.15" d="M9.05881097,211.044144 C16.5433906,204.983185 26.145343,200.620945 37.8399855,197.953323 C40.3704685,197.376104 42.5237134,197.482783 44.7340023,198.251065 C46.0948284,198.72408 47.440096,199.418726 49.3005327,200.553835 C49.7779711,200.845135 53.4304324,203.153211 54.714792,203.927994 C60.1928531,207.232608 65.8122859,209.934236 73.3674874,212.577662 C76.2429261,213.583726 79.3245362,214.547628 82.637633,215.469194 C85.1690757,216.173337 99.0930328,222.277002 100.107859,222.688521 C119.333517,230.484658 135.486791,232.711707 151.523038,226.900818 C160.151444,223.774231 165.100015,217.824287 170.729228,206.185026 C171.079027,205.461763 171.430629,204.72331 171.899248,203.730648 C172.034666,203.443796 172.188585,203.117249 172.477133,202.505018 C172.710828,202.009376 172.883928,201.643046 173.054102,201.284362 C178.612729,189.56821 182.497896,184.584364 189.900568,182.501693 C200.540526,179.508244 207.736675,180.259854 217.295836,184.128435 C218.067747,184.440826 218.855974,184.770271 219.896976,185.213023 C219.910255,185.21867 221.927275,186.079511 222.513214,186.327097 C231.74088,190.226211 238.11025,191.821155 247.579159,191.697994 C253.235659,191.624421 257.40907,190.575362 260.772409,188.616968 C263.32653,187.129763 264.931696,185.613427 268.185436,181.959157 C268.234779,181.903739 268.234779,181.903739 268.284176,181.848262 C272.285119,177.355017 274.468587,175.407984 278.242639,173.625152 C283.167009,171.29892 289.489135,170.450429 298.114808,171.20728 C310.043629,172.253962 317.94625,176.365163 327.590322,184.713709 C328.276804,185.307973 332.29892,188.869765 333.433435,189.834817 C343.022221,197.99132 350.054525,199.896325 362.471415,195.32086 C370.338096,192.422089 374.874956,188.773182 377.168655,184.122823 C378.921248,180.569531 379.315821,177.427664 379.426227,169.987868 C379.448191,168.507763 379.460381,167.853907 379.485273,167.027559 C379.773117,157.472065 381.781667,151.567915 388.154475,146.113694 C407.693033,129.391455 410.600132,123.410065 406.73091,104.503534 C404.896967,95.5421683 399.61526,91.3057677 387.910476,86.8765606 C387.42508,86.6928819 386.922085,86.5049399 386.284962,86.2686649 C386.06271,86.1862438 384.964946,85.7800595 384.658625,85.6663659 C375.695797,82.3397489 371.739393,80.1408909 368.934627,75.8262731 C365.775731,70.9668902 363.638583,66.1091675 360.59644,57.6927666 C360.468683,57.3393151 360.335784,56.9703923 360.178037,56.531522 C360.079515,56.2574247 359.969797,55.9518652 359.762102,55.3733967 C356.06489,45.0785858 354.027372,40.4600187 350.526036,35.5891694 C345.992282,29.2820824 339.956491,24.8854703 331.376083,22.1874542 C319.734716,18.5269523 311.52387,19.1543549 298.640142,22.9363909 C289.650047,25.5754458 287.864722,26.0141248 283.914147,26.1650136 C282.177398,26.2313472 280.50464,26.1207422 278.857091,25.8159814 C269.607415,24.1049928 264.765185,21.2055993 256.509617,13.9790039 C256.396137,13.8796617 256.396137,13.8796617 256.282786,13.7804287 C247.622376,6.19892583 242.716349,3.47734953 232.437837,2.32200513 C211.26286,-0.0581441462 199.982982,4.29633413 191.786325,14.2797336 C190.372348,16.0019346 186.383537,21.6044923 186.024992,22.0696256 C180.326528,29.462144 174.650418,30.1907135 163.395877,23.0119745 C145.853234,11.8223534 132.499945,9.37192654 122.201357,13.992939 C114.073357,17.6400004 108.108996,25.2655137 102.238643,37.6379108 C100.866452,40.5299504 95.6333128,52.6793886 94.2994246,55.3650987 C93.1067815,57.7664196 92.0076619,59.6414401 90.8870025,61.1212406 C88.0383646,64.8827902 84.7488416,67.4871541 79.2902724,70.8210002 C78.9048653,71.0563893 78.5095395,71.2956192 77.9957996,71.6048821 C77.9343544,71.6418711 76.9911975,72.2089614 76.7173255,72.374112 C70.0199486,76.4127707 67.0823601,78.883627 64.9682861,83.0563956 C62.2197809,88.4814076 61.9354567,96.1245912 64.5955078,107.33869 C66.5123655,115.419675 64.2632899,119.376886 57.3939172,124.09158 C57.2992151,124.156577 55.4333669,125.422692 54.8908289,125.801352 C50.4846454,128.876617 48.1627745,131.47299 46.8651511,135.621047 C42.4792716,149.641203 29.8862715,174.753476 9.05881097,211.044144 Z" stroke-linejoin="square"></path>
                        </g>
                        <path d="M37.4897152,196.417766 C40.3051617,195.775545 42.7589449,195.897113 45.2511139,196.763376 C46.7399177,197.280874 48.1728011,198.020763 50.1208561,199.20933 C50.6137002,199.510029 54.2616506,201.815254 55.5283386,202.579378 C60.9170892,205.830115 66.4392501,208.484978 73.8876326,211.091031 C76.7303269,212.085637 79.7792404,213.039312 83.0597085,213.951803 C85.717597,214.691117 99.7962443,220.862592 100.699722,221.228958 C119.598915,228.892711 135.393479,231.070305 150.986462,225.420037 C159.132216,222.468344 163.844881,216.802043 169.311348,205.499283 C169.658604,204.781278 170.008288,204.046853 170.47498,203.058275 C170.610163,202.77192 170.763838,202.445893 171.052544,201.833326 C171.286731,201.336639 171.460316,200.969284 171.631132,200.609247 C174.308418,194.966217 176.077783,191.758125 178.386635,188.796357 C181.455518,184.85963 185.027602,182.23651 189.474017,180.985554 C200.479349,177.88931 208.024915,178.677415 217.886685,182.668462 C218.668672,182.984931 219.464637,183.317609 220.513407,183.763665 C220.528991,183.770293 222.543399,184.630018 223.126244,184.876297 C232.170779,188.698031 238.340676,190.243024 247.558675,190.123127 C252.955366,190.052933 256.863297,189.070607 259.979885,187.255891 C262.347143,185.877492 263.86134,184.44709 267.009146,180.911795 L267.10791,180.800874 C271.241381,176.158793 273.550324,174.099872 277.569907,172.201054 C282.771137,169.744035 289.367652,168.858718 298.252476,169.638308 C310.563525,170.718529 318.748889,174.976822 328.621157,183.522909 C329.318955,184.126969 333.333978,187.68248 334.45392,188.635135 C343.642833,196.451495 350.100536,198.200844 361.926843,193.843002 C369.439411,191.074716 373.656514,187.682984 375.756129,183.426122 C377.369854,180.154376 377.744448,177.171599 377.8514,169.964498 C377.873484,168.476356 377.885772,167.817186 377.910987,166.980136 C378.210894,157.024174 380.357736,150.713517 387.130365,144.917106 C406.275094,128.531929 408.924917,123.079886 405.187891,104.819313 C403.490986,96.5275714 398.602392,92.6064824 387.353055,88.3496211 C386.871423,88.1673667 386.371457,87.9805563 385.737323,87.7453902 C385.515875,87.6632669 384.417839,87.2569818 384.110583,87.1429415 C374.827487,83.6974546 370.671258,81.3875393 367.614116,76.6846866 C364.371916,71.6971575 362.195781,66.750817 359.11523,58.2281562 C358.987116,57.8737155 358.853915,57.5039536 358.695875,57.064271 C358.597252,56.7898916 358.487428,56.4840391 358.279795,55.9057428 C354.631562,45.7473133 352.634819,41.2211717 349.247163,36.5084677 C344.911024,30.4762906 339.157439,26.2852437 330.903647,23.6899283 C319.614919,20.1403104 311.695439,20.7454494 299.083767,24.447623 C289.938596,27.1322003 288.112924,27.5807934 283.974259,27.738866 C282.124551,27.809514 280.335882,27.6912449 278.57061,27.3647079 C268.983428,25.5912881 263.921828,22.5605419 255.47223,15.1641006 C255.358672,15.0646899 255.358672,15.0646899 255.245359,14.9654898 C246.804385,7.57608525 242.160179,4.99975244 232.261909,3.88714866 C211.60733,1.56549411 200.854961,5.71633324 193.003607,15.2791575 C191.631463,16.9504078 187.662221,22.525478 187.272403,23.0311823 C181.05601,31.095601 174.466355,31.9414306 162.548891,24.339845 C145.412934,13.4096292 132.592021,11.0568973 122.846131,15.4299117 C115.145523,18.8852015 109.385327,26.2496852 103.661596,38.3130619 C102.308267,41.1653491 97.0675126,53.3324661 95.7100262,56.0656899 C94.4773496,58.5476161 93.3319741,60.5015458 92.1425867,62.0720999 C89.1482235,66.0260757 85.723948,68.7371251 80.1112072,72.1651322 C79.7224424,72.4025722 79.3244755,72.6434003 78.8080974,72.9542513 C78.7458846,72.9917024 77.8034862,73.5583367 77.5306503,73.7228625 C71.0719463,77.6175964 68.314187,79.9371953 66.37326,83.7682057 C63.8171462,88.8134746 63.5463929,96.0918455 66.1279841,106.975178 C68.2206573,115.797356 65.6359991,120.34502 58.2851728,125.390151 C58.182929,125.460325 56.324654,126.7213 55.7922482,127.092889 C51.6454137,129.987143 49.5420885,132.339133 48.3683172,136.091278 C44.193709,149.436071 32.7358191,172.576245 13.9488519,205.656316 C20.5691373,201.56419 28.4233041,198.485872 37.4897152,196.417766 Z M0.708888601,222.319849 C25.6685765,179.580025 40.552942,150.523681 45.3619851,135.150817 C49.7549771,121.107925 66.9070152,123.90746 63.0630315,107.702203 C54.3591825,71.008989 77.939126,75.6097381 89.6314184,60.1703812 C101.323711,44.7310244 107.714379,-14.372739 164.242863,21.684104 C194.574341,41.0311175 175.592013,-5.65260363 232.613766,0.756861595 C257.15065,3.51490216 256.576708,20.0928765 279.143572,24.2672549 C293.618574,26.9448151 306.584347,12.7409347 331.84852,20.6849801 C360.247554,29.6147482 357.798176,55.8051073 370.255139,74.9678596 C378.022192,86.9160467 403.99647,83.2864137 408.273929,104.187755 C412.551389,125.089097 407.515825,131.616202 389.178586,147.310282 C370.841346,163.004362 394.209625,185.304263 363.015987,196.798719 C331.822349,208.293175 331.719152,175.736911 297.97714,172.776252 C264.235128,169.815592 275.132045,192.91475 247.599643,193.272861 C220.067242,193.630971 215.382588,176.968719 190.32712,184.017833 C172.38422,189.065894 174.953194,220.085888 152.059613,228.381599 C122.001369,239.273495 92.8032127,219.931633 82.2155576,216.986586 C49.30421,207.832013 48.4606131,197.146147 38.1902557,199.48888 C21.0024237,203.409533 8.50863461,211.019856 0.708888601,222.319849 Z" id="Path-46-Copy-4" fill="#897AFF" fill-rule="nonzero"></path>
                        <g id="headline" transform="translate(153.251063, 58.387210)">
                            <path d="M3.43695313,80.1159003 C1.79695313,80.1159003 0.396953125,79.0559003 0.396953125,77.2359003 C0.396953125,74.7759003 2.47695313,73.4159003 7.15695313,73.0359003 L7.15695313,72.7759003 C7.15695313,71.9959003 6.75695313,71.4959003 5.71695313,71.4959003 C4.35695313,71.4959003 3.19695313,72.0559003 2.21695313,72.8159003 L0.856953125,70.9759003 C1.91695313,70.0159003 3.51695313,69.0759003 6.17695313,69.0759003 C9.09695313,69.0759003 10.2969531,70.5159003 10.2969531,73.2559003 L10.2969531,77.3559003 C10.2969531,78.6359003 10.3769531,79.4159003 10.5969531,79.9559003 L7.39695313,79.9559003 C7.25695313,79.5159003 7.15695313,78.9959003 7.15695313,78.3959003 C6.17695313,79.4959003 5.01695313,80.1159003 3.43695313,80.1159003 Z M4.71695313,77.6959003 C5.83695313,77.6959003 6.61695313,77.3159003 7.15695313,76.7759003 L7.15695313,74.7959003 C4.61695313,75.0559003 3.53695313,75.6959003 3.53695313,76.6759003 C3.53695313,77.3559003 4.01695313,77.6959003 4.71695313,77.6959003 Z M12.6369531,83.9559003 L12.6369531,69.2959003 L15.8569531,69.2959003 L15.8569531,70.9159003 C16.5569531,69.9559003 17.5569531,69.0759003 19.1369531,69.0759003 C21.5569531,69.0759003 23.2369531,70.9359003 23.2369531,74.6159003 C23.2369531,78.2959003 21.5369531,80.1159003 19.0969531,80.1159003 C17.6569531,80.1159003 16.6569531,79.5959003 15.8569531,78.6959003 L15.8569531,83.9559003 L12.6369531,83.9559003 Z M17.9969531,77.6959003 C19.3369531,77.6959003 20.0169531,76.5759003 20.0169531,74.6359003 C20.0169531,72.8559003 19.3969531,71.7359003 17.9569531,71.7359003 C17.1369531,71.7359003 16.3969531,72.2359003 15.8569531,72.7759003 L15.8569531,76.7159003 C16.5569531,77.3759003 17.1369531,77.6959003 17.9969531,77.6959003 Z M25.1169531,83.9559003 L25.1169531,69.2959003 L28.3369531,69.2959003 L28.3369531,70.9159003 C29.0369531,69.9559003 30.0369531,69.0759003 31.6169531,69.0759003 C34.0369531,69.0759003 35.7169531,70.9359003 35.7169531,74.6159003 C35.7169531,78.2959003 34.0169531,80.1159003 31.5769531,80.1159003 C30.1369531,80.1159003 29.1369531,79.5959003 28.3369531,78.6959003 L28.3369531,83.9559003 L25.1169531,83.9559003 Z M30.4769531,77.6959003 C31.8169531,77.6959003 32.4969531,76.5759003 32.4969531,74.6359003 C32.4969531,72.8559003 31.8769531,71.7359003 30.4369531,71.7359003 C29.6169531,71.7359003 28.8769531,72.2359003 28.3369531,72.7759003 L28.3369531,76.7159003 C29.0369531,77.3759003 29.6169531,77.6959003 30.4769531,77.6959003 Z M47.8569531,80.1759003 C45.2769531,80.1759003 42.3969531,78.7759003 42.3969531,74.6359003 C42.3969531,70.4559003 45.2569531,69.0759003 47.8569531,69.0759003 C50.4369531,69.0759003 53.2969531,70.4559003 53.2969531,74.6359003 C53.2969531,78.7759003 50.4369531,80.1759003 47.8569531,80.1759003 Z M47.8569531,77.9159003 C49.3769531,77.9159003 50.0769531,76.5959003 50.0769531,74.6559003 C50.0769531,72.8759003 49.4569531,71.4359003 47.8569531,71.4359003 C46.3169531,71.4359003 45.6169531,72.7359003 45.6169531,74.6559003 C45.6169531,76.4359003 46.2169531,77.9159003 47.8569531,77.9159003 Z M56.1169531,79.9559003 L56.1169531,71.6359003 L54.3369531,71.6359003 L54.3369531,69.2959003 L56.1169531,69.2959003 L56.1169531,68.5559003 C56.1169531,66.7759003 56.6569531,65.0759003 59.8169531,65.0759003 C60.4369531,65.0759003 61.5769531,65.1759003 61.7569531,65.2159003 L61.7569531,67.4559003 C61.5969531,67.4159003 61.1369531,67.3759003 60.8169531,67.3759003 C60.0369531,67.3759003 59.3169531,67.5159003 59.3169531,68.6559003 L59.3169531,69.2959003 L61.6369531,69.2959003 L61.6369531,71.6359003 L59.3169531,71.6359003 L59.3169531,79.9559003 L56.1169531,79.9559003 Z M70.3169531,84.0359003 C68.7369531,84.0359003 67.8369531,83.8159003 67.2769531,83.6559003 L67.9569531,81.1759003 C68.2569531,81.2559003 69.0169531,81.4559003 69.9769531,81.4559003 C70.6769531,81.4559003 71.0769531,81.1959003 71.3369531,80.5359003 L71.5369531,80.0159003 L67.4569531,69.2959003 L70.7769531,69.2959003 L73.1169531,76.2159003 L73.1569531,76.2159003 L75.5169531,69.2959003 L78.6369531,69.2959003 L74.1569531,81.0759003 C73.4369531,82.9159003 72.4569531,84.0359003 70.3169531,84.0359003 Z M84.7169531,80.1759003 C82.1369531,80.1759003 79.2569531,78.7759003 79.2569531,74.6359003 C79.2569531,70.4559003 82.1169531,69.0759003 84.7169531,69.0759003 C87.2969531,69.0759003 90.1569531,70.4559003 90.1569531,74.6359003 C90.1569531,78.7759003 87.2969531,80.1759003 84.7169531,80.1759003 Z M84.7169531,77.9159003 C86.2369531,77.9159003 86.9369531,76.5959003 86.9369531,74.6559003 C86.9369531,72.8759003 86.3169531,71.4359003 84.7169531,71.4359003 C83.1769531,71.4359003 82.4769531,72.7359003 82.4769531,74.6559003 C82.4769531,76.4359003 83.0769531,77.9159003 84.7169531,77.9159003 Z M95.0369531,80.1759003 C93.2169531,80.1759003 91.9169531,79.2759003 91.9169531,77.0759003 L91.9169531,69.2959003 L95.1369531,69.2959003 L95.1369531,76.1359003 C95.1369531,77.0959003 95.4969531,77.6159003 96.3969531,77.6159003 C97.2569531,77.6159003 97.9969531,77.1559003 98.7169531,76.5359003 L98.7169531,69.2959003 L101.936953,69.2959003 L101.936953,79.9559003 L98.7169531,79.9559003 L98.7169531,78.2959003 C98.0769531,79.1159003 96.8969531,80.1759003 95.0369531,80.1759003 Z M104.376953,79.9559003 L104.376953,69.2959003 L107.596953,69.2959003 L107.596953,71.0759003 L107.616953,71.0759003 C108.196953,70.1759003 109.216953,69.0759003 111.216953,69.0759003 L111.316953,69.0759003 L111.276953,71.9359003 C111.156953,71.9159003 110.636953,71.8759003 110.436953,71.8759003 C109.156953,71.8759003 108.196953,72.5559003 107.596953,73.3359003 L107.596953,79.9559003 L104.376953,79.9559003 Z M121.736953,80.1159003 C119.316953,80.1159003 117.636953,78.3959003 117.636953,74.7159003 C117.636953,71.0359003 119.336953,69.0759003 121.776953,69.0759003 C123.216953,69.0759003 124.256953,69.5959003 125.016953,70.6359003 L125.016953,65.1559003 L128.236953,65.1559003 L128.236953,77.3559003 C128.236953,78.6359003 128.316953,79.4159003 128.556953,79.9559003 L125.256953,79.9559003 C125.116953,79.6959003 125.016953,78.8959003 125.016953,78.3559003 C124.316953,79.3159003 123.316953,80.1159003 121.736953,80.1159003 Z M122.936953,77.6959003 C123.756953,77.6959003 124.496953,77.1959003 125.016953,76.6559003 L125.016953,72.7159003 C124.316953,72.0559003 123.736953,71.7359003 122.896953,71.7359003 C121.556953,71.7359003 120.856953,72.7559003 120.856953,74.6959003 C120.856953,76.4759003 121.496953,77.6959003 122.936953,77.6959003 Z M130.696953,79.9559003 L130.696953,69.2959003 L133.916953,69.2959003 L133.916953,71.0759003 L133.936953,71.0759003 C134.516953,70.1759003 135.536953,69.0759003 137.536953,69.0759003 L137.636953,69.0759003 L137.596953,71.9359003 C137.476953,71.9159003 136.956953,71.8759003 136.756953,71.8759003 C135.476953,71.8759003 134.516953,72.5559003 133.916953,73.3359003 L133.916953,79.9559003 L130.696953,79.9559003 Z M144.016953,80.1759003 C141.236953,80.1759003 138.576953,78.7559003 138.576953,74.6359003 C138.576953,70.4959003 141.736953,69.0759003 143.936953,69.0759003 C146.136953,69.0759003 148.836953,70.1759003 148.836953,75.0159003 L148.836953,75.4959003 L141.776953,75.4959003 C141.936953,77.2559003 142.916953,77.9359003 144.256953,77.9359003 C145.516953,77.9359003 146.696953,77.3159003 147.416953,76.6559003 L148.656953,78.5759003 C147.416953,79.6359003 145.876953,80.1759003 144.016953,80.1759003 Z M141.816953,73.5959003 L145.956953,73.5959003 C145.796953,72.0959003 145.116953,71.3759003 143.916953,71.3759003 C142.916953,71.3759003 142.056953,72.0359003 141.816953,73.5959003 Z M153.036953,80.1159003 C151.396953,80.1159003 149.996953,79.0559003 149.996953,77.2359003 C149.996953,74.7759003 152.076953,73.4159003 156.756953,73.0359003 L156.756953,72.7759003 C156.756953,71.9959003 156.356953,71.4959003 155.316953,71.4959003 C153.956953,71.4959003 152.796953,72.0559003 151.816953,72.8159003 L150.456953,70.9759003 C151.516953,70.0159003 153.116953,69.0759003 155.776953,69.0759003 C158.696953,69.0759003 159.896953,70.5159003 159.896953,73.2559003 L159.896953,77.3559003 C159.896953,78.6359003 159.976953,79.4159003 160.196953,79.9559003 L156.996953,79.9559003 C156.856953,79.5159003 156.756953,78.9959003 156.756953,78.3959003 C155.776953,79.4959003 154.616953,80.1159003 153.036953,80.1159003 Z M154.316953,77.6959003 C155.436953,77.6959003 156.216953,77.3159003 156.756953,76.7759003 L156.756953,74.7959003 C154.216953,75.0559003 153.136953,75.6959003 153.136953,76.6759003 C153.136953,77.3559003 153.616953,77.6959003 154.316953,77.6959003 Z M162.236953,79.9559003 L162.236953,69.2959003 L165.456953,69.2959003 L165.456953,70.9759003 C166.096953,70.1359003 167.276953,69.0759003 168.956953,69.0759003 C170.736953,69.0759003 171.576953,69.8159003 171.876953,70.9759003 C172.516953,70.1559003 173.716953,69.0759003 175.396953,69.0759003 C177.556953,69.0759003 178.516953,70.4359003 178.516953,72.3359003 L178.516953,79.9559003 L175.296953,79.9559003 L175.296953,73.1959003 C175.296953,72.2359003 175.076953,71.7359003 174.136953,71.7359003 C173.336953,71.7359003 172.696953,72.1759003 171.996953,72.7959003 L171.996953,79.9559003 L168.776953,79.9559003 L168.776953,73.1959003 C168.776953,72.2359003 168.556953,71.7359003 167.616953,71.7359003 C166.816953,71.7359003 166.176953,72.1759003 165.456953,72.7959003 L165.456953,79.9559003 L162.236953,79.9559003 Z M185.076953,80.1759003 C182.736953,80.1759003 181.176953,79.4559003 180.096953,78.5359003 L181.376953,76.7359003 C182.336953,77.5759003 183.776953,78.1159003 185.076953,78.1159003 C186.076953,78.1159003 186.776953,77.7759003 186.776953,77.0759003 C186.776953,76.3359003 186.216953,76.0559003 184.756953,75.7959003 C182.736953,75.4359003 180.576953,74.9559003 180.576953,72.4559003 C180.576953,70.3159003 182.336953,69.0759003 184.716953,69.0759003 C186.896953,69.0759003 188.216953,69.6359003 189.396953,70.5759003 L188.136953,72.3959003 C187.056953,71.6559003 185.996953,71.2359003 184.996953,71.2359003 C184.076953,71.2359003 183.556953,71.5959003 183.556953,72.1759003 C183.556953,72.8159003 184.136953,73.0759003 185.456953,73.3159003 C187.556953,73.6759003 189.776953,74.1559003 189.776953,76.5759003 C189.776953,79.1559003 187.536953,80.1759003 185.076953,80.1759003 Z" id="app-of-your-dreams" fill="#9FD6FF"></path>
                            <path d="M3.35536535,58.7033434 L0.235365352,48.0433434 L3.47536535,48.0433434 L4.39536535,51.8633434 C4.67536535,52.9833434 4.85536535,53.7433434 5.09536535,55.1233434 L5.13536535,55.1233434 C5.39536535,53.7233434 5.57536535,52.9433434 5.87536535,51.7833434 L6.79536535,48.0433434 L9.29536535,48.0433434 L10.2753654,51.8433434 C10.5953654,52.9633434 10.7553654,53.7433434 11.0353654,55.1233434 L11.0753654,55.1233434 C11.3353654,53.7633434 11.5153654,52.9833434 11.8153654,51.8833434 L12.7953654,48.0433434 L15.6553654,48.0433434 L12.5353654,58.7033434 L9.55536535,58.7033434 L7.95536535,52.2033434 L7.91536535,52.2033434 L6.31536535,58.7033434 L3.35536535,58.7033434 Z M16.9153654,58.7033434 L16.9153654,43.9033434 L20.1353654,43.9033434 L20.1353654,49.7233434 C20.7753654,48.8833434 21.9553654,47.8233434 23.8153654,47.8233434 C25.6353654,47.8233434 26.9353654,48.7233434 26.9353654,50.9233434 L26.9353654,58.7033434 L23.7153654,58.7033434 L23.7153654,51.9433434 C23.7153654,50.9833434 23.3553654,50.4833434 22.4753654,50.4833434 C21.5953654,50.4833434 20.8553654,50.9233434 20.1353654,51.5433434 L20.1353654,58.7033434 L16.9153654,58.7033434 Z M34.1353654,58.9233434 C31.3553654,58.9233434 28.6953654,57.5033434 28.6953654,53.3833434 C28.6953654,49.2433434 31.8553654,47.8233434 34.0553654,47.8233434 C36.2553654,47.8233434 38.9553654,48.9233434 38.9553654,53.7633434 L38.9553654,54.2433434 L31.8953654,54.2433434 C32.0553654,56.0033434 33.0353654,56.6833434 34.3753654,56.6833434 C35.6353654,56.6833434 36.8153654,56.0633434 37.5353654,55.4033434 L38.7753654,57.3233434 C37.5353654,58.3833434 35.9953654,58.9233434 34.1353654,58.9233434 Z M31.9353654,52.3433434 L36.0753654,52.3433434 C35.9153654,50.8433434 35.2353654,50.1233434 34.0353654,50.1233434 C33.0353654,50.1233434 32.1753654,50.7833434 31.9353654,52.3433434 Z M40.8153654,58.7033434 L40.8153654,48.0433434 L44.0353654,48.0433434 L44.0353654,49.8233434 L44.0553654,49.8233434 C44.6353654,48.9233434 45.6553654,47.8233434 47.6553654,47.8233434 L47.7553654,47.8233434 L47.7153654,50.6833434 C47.5953654,50.6633434 47.0753654,50.6233434 46.8753654,50.6233434 C45.5953654,50.6233434 44.6353654,51.3033434 44.0353654,52.0833434 L44.0353654,58.7033434 L40.8153654,58.7033434 Z M54.1353654,58.9233434 C51.3553654,58.9233434 48.6953654,57.5033434 48.6953654,53.3833434 C48.6953654,49.2433434 51.8553654,47.8233434 54.0553654,47.8233434 C56.2553654,47.8233434 58.9553654,48.9233434 58.9553654,53.7633434 L58.9553654,54.2433434 L51.8953654,54.2433434 C52.0553654,56.0033434 53.0353654,56.6833434 54.3753654,56.6833434 C55.6353654,56.6833434 56.8153654,56.0633434 57.5353654,55.4033434 L58.7753654,57.3233434 C57.5353654,58.3833434 55.9953654,58.9233434 54.1353654,58.9233434 Z M51.9353654,52.3433434 L56.0753654,52.3433434 C55.9153654,50.8433434 55.2353654,50.1233434 54.0353654,50.1233434 C53.0353654,50.1233434 52.1753654,50.7833434 51.9353654,52.3433434 Z M67.8753654,62.7833434 C66.2953654,62.7833434 65.3953654,62.5633434 64.8353654,62.4033434 L65.5153654,59.9233434 C65.8153654,60.0033434 66.5753654,60.2033434 67.5353654,60.2033434 C68.2353654,60.2033434 68.6353654,59.9433434 68.8953654,59.2833434 L69.0953654,58.7633434 L65.0153654,48.0433434 L68.3353654,48.0433434 L70.6753654,54.9633434 L70.7153654,54.9633434 L73.0753654,48.0433434 L76.1953654,48.0433434 L71.7153654,59.8233434 C70.9953654,61.6633434 70.0153654,62.7833434 67.8753654,62.7833434 Z M82.2753654,58.9233434 C79.6953654,58.9233434 76.8153654,57.5233434 76.8153654,53.3833434 C76.8153654,49.2033434 79.6753654,47.8233434 82.2753654,47.8233434 C84.8553654,47.8233434 87.7153654,49.2033434 87.7153654,53.3833434 C87.7153654,57.5233434 84.8553654,58.9233434 82.2753654,58.9233434 Z M82.2753654,56.6633434 C83.7953654,56.6633434 84.4953654,55.3433434 84.4953654,53.4033434 C84.4953654,51.6233434 83.8753654,50.1833434 82.2753654,50.1833434 C80.7353654,50.1833434 80.0353654,51.4833434 80.0353654,53.4033434 C80.0353654,55.1833434 80.6353654,56.6633434 82.2753654,56.6633434 Z M92.5953654,58.9233434 C90.7753654,58.9233434 89.4753654,58.0233434 89.4753654,55.8233434 L89.4753654,48.0433434 L92.6953654,48.0433434 L92.6953654,54.8833434 C92.6953654,55.8433434 93.0553654,56.3633434 93.9553654,56.3633434 C94.8153654,56.3633434 95.5553654,55.9033434 96.2753654,55.2833434 L96.2753654,48.0433434 L99.4953654,48.0433434 L99.4953654,58.7033434 L96.2753654,58.7033434 L96.2753654,57.0433434 C95.6353654,57.8633434 94.4553654,58.9233434 92.5953654,58.9233434 Z M102.155365,49.4033434 L102.995365,47.0033434 L101.875365,47.0033434 L101.875365,43.9033434 L105.175365,43.9033434 L105.175365,46.7433434 L103.655365,49.4033434 L102.155365,49.4033434 Z M107.695365,58.7033434 L107.695365,43.9033434 L110.895365,43.9033434 L110.895365,58.7033434 L107.695365,58.7033434 Z M113.575365,58.7033434 L113.575365,43.9033434 L116.775365,43.9033434 L116.775365,58.7033434 L113.575365,58.7033434 Z M125.675365,58.7033434 L125.675365,50.3833434 L123.895365,50.3833434 L123.895365,48.0433434 L125.675365,48.0433434 L125.675365,47.3033434 C125.675365,45.5233434 126.215365,43.8233434 129.375365,43.8233434 C129.995365,43.8233434 131.135365,43.9233434 131.315365,43.9633434 L131.315365,46.2033434 C131.155365,46.1633434 130.695365,46.1233434 130.375365,46.1233434 C129.595365,46.1233434 128.875365,46.2633434 128.875365,47.4033434 L128.875365,48.0433434 L131.195365,48.0433434 L131.195365,50.3833434 L128.875365,50.3833434 L128.875365,58.7033434 L125.675365,58.7033434 Z M132.915365,46.5833434 L132.915365,44.0033434 L136.155365,44.0033434 L136.155365,46.5833434 L132.915365,46.5833434 Z M132.935365,58.7033434 L132.935365,48.0433434 L136.135365,48.0433434 L136.135365,58.7033434 L132.935365,58.7033434 Z M138.715365,58.7033434 L138.715365,48.0433434 L141.935365,48.0433434 L141.935365,49.7233434 C142.575365,48.8833434 143.755365,47.8233434 145.615365,47.8233434 C147.415365,47.8233434 148.715365,48.7233434 148.715365,50.9233434 L148.715365,58.7033434 L145.515365,58.7033434 L145.515365,51.9433434 C145.515365,50.9833434 145.155365,50.4833434 144.255365,50.4833434 C143.395365,50.4833434 142.655365,50.9233434 141.935365,51.5433434 L141.935365,58.7033434 L138.715365,58.7033434 Z M154.575365,58.8633434 C152.155365,58.8633434 150.475365,57.1433434 150.475365,53.4633434 C150.475365,49.7833434 152.175365,47.8233434 154.615365,47.8233434 C156.055365,47.8233434 157.095365,48.3433434 157.855365,49.3833434 L157.855365,43.9033434 L161.075365,43.9033434 L161.075365,56.1033434 C161.075365,57.3833434 161.155365,58.1633434 161.395365,58.7033434 L158.095365,58.7033434 C157.955365,58.4433434 157.855365,57.6433434 157.855365,57.1033434 C157.155365,58.0633434 156.155365,58.8633434 154.575365,58.8633434 Z M155.775365,56.4433434 C156.595365,56.4433434 157.335365,55.9433434 157.855365,55.4033434 L157.855365,51.4633434 C157.155365,50.8033434 156.575365,50.4833434 155.735365,50.4833434 C154.395365,50.4833434 153.695365,51.5033434 153.695365,53.4433434 C153.695365,55.2233434 154.335365,56.4433434 155.775365,56.4433434 Z M173.395365,58.8433434 C170.235365,58.8433434 169.775365,57.7033434 169.775365,55.7033434 L169.775365,50.3833434 L167.995365,50.3833434 L167.995365,48.0433434 L169.775365,48.0433434 L169.775365,44.3833434 L172.975365,44.3833434 L172.975365,48.0433434 L175.715365,48.0433434 L175.715365,50.3833434 L172.975365,50.3833434 L172.975365,55.0033434 C172.975365,56.1433434 173.295365,56.5033434 174.455365,56.5033434 C174.815365,56.5033434 175.295365,56.4633434 175.515365,56.3833434 L175.515365,58.6833434 C175.275365,58.7433434 174.095365,58.8433434 173.395365,58.8433434 Z M177.455365,58.7033434 L177.455365,43.9033434 L180.675365,43.9033434 L180.675365,49.7233434 C181.315365,48.8833434 182.495365,47.8233434 184.355365,47.8233434 C186.175365,47.8233434 187.475365,48.7233434 187.475365,50.9233434 L187.475365,58.7033434 L184.255365,58.7033434 L184.255365,51.9433434 C184.255365,50.9833434 183.895365,50.4833434 183.015365,50.4833434 C182.135365,50.4833434 181.395365,50.9233434 180.675365,51.5433434 L180.675365,58.7033434 L177.455365,58.7033434 Z M194.675365,58.9233434 C191.895365,58.9233434 189.235365,57.5033434 189.235365,53.3833434 C189.235365,49.2433434 192.395365,47.8233434 194.595365,47.8233434 C196.795365,47.8233434 199.495365,48.9233434 199.495365,53.7633434 L199.495365,54.2433434 L192.435365,54.2433434 C192.595365,56.0033434 193.575365,56.6833434 194.915365,56.6833434 C196.175365,56.6833434 197.355365,56.0633434 198.075365,55.4033434 L199.315365,57.3233434 C198.075365,58.3833434 196.535365,58.9233434 194.675365,58.9233434 Z M192.475365,52.3433434 L196.615365,52.3433434 C196.455365,50.8433434 195.775365,50.1233434 194.575365,50.1233434 C193.575365,50.1233434 192.715365,50.7833434 192.475365,52.3433434 Z" id="where-you’ll-find-th" fill="#FFFFFF"></path>
                            <g id="friendly-community" fill-rule="nonzero">
                                <use fill="#FFFFFF" xlink:href="#path-2"></use>
                                <use fill="#69E4CA" xlink:href="#path-2"></use>
                            </g>
                            <path d="M7.17695313,15.9401563 C2.69695313,15.9401563 0.696953125,12.6601563 0.696953125,8.20015625 C0.696953125,3.56015625 3.27695313,0.58015625 7.43695313,0.58015625 C10.2369531,0.58015625 12.4769531,1.70015625 13.4169531,5.32015625 L10.4369531,6.14015625 C9.81695313,4.08015625 8.87695313,3.28015625 7.41695313,3.28015625 C6.21695313,3.28015625 3.97695313,3.98015625 3.97695313,8.14015625 C3.97695313,12.2801563 5.97695313,13.3201563 7.55695313,13.3201563 C9.17695313,13.3201563 10.2969531,12.3001563 10.5969531,10.6601563 L8.01695313,10.6601563 L8.01695313,8.24015625 L13.6969531,8.24015625 L13.6969531,15.6601563 L11.0769531,15.6601563 L11.0769531,13.6201563 L11.0369531,13.6201563 C10.7169531,14.5001563 9.41695313,15.9401563 7.17695313,15.9401563 Z M16.4369531,15.6601563 L16.4369531,0.86015625 L19.6369531,0.86015625 L19.6369531,15.6601563 L16.4369531,15.6601563 Z M22.2969531,3.54015625 L22.2969531,0.96015625 L25.5369531,0.96015625 L25.5369531,3.54015625 L22.2969531,3.54015625 Z M22.3169531,15.6601563 L22.3169531,5.00015625 L25.5169531,5.00015625 L25.5169531,15.6601563 L22.3169531,15.6601563 Z M32.5569531,15.8001563 C29.3969531,15.8001563 28.9369531,14.6601563 28.9369531,12.6601563 L28.9369531,7.34015625 L27.1569531,7.34015625 L27.1569531,5.00015625 L28.9369531,5.00015625 L28.9369531,1.34015625 L32.1369531,1.34015625 L32.1369531,5.00015625 L34.8769531,5.00015625 L34.8769531,7.34015625 L32.1369531,7.34015625 L32.1369531,11.9601563 C32.1369531,13.1001563 32.4569531,13.4601563 33.6169531,13.4601563 C33.9769531,13.4601563 34.4569531,13.4201563 34.6769531,13.3401563 L34.6769531,15.6401563 C34.4369531,15.7001563 33.2569531,15.8001563 32.5569531,15.8001563 Z M41.2769531,15.8801563 C38.7769531,15.8801563 36.0369531,14.4801563 36.0369531,10.3401563 C36.0369531,6.08015625 39.0569531,4.78015625 41.4169531,4.78015625 C44.3169531,4.78015625 45.4369531,6.32015625 46.0569531,8.04015625 L43.3569531,8.94015625 C42.9369531,7.58015625 42.3169531,7.14015625 41.3769531,7.14015625 C40.0769531,7.14015625 39.2569531,8.24015625 39.2569531,10.3601563 C39.2569531,12.2601563 39.8569531,13.6201563 41.3369531,13.6201563 C42.1969531,13.6201563 42.9769531,13.1601563 43.4369531,11.7201563 L46.0969531,12.6401563 C45.4169531,14.3001563 44.0969531,15.8801563 41.2769531,15.8801563 Z M47.7169531,15.6601563 L47.7169531,0.86015625 L50.9369531,0.86015625 L50.9369531,6.68015625 C51.5769531,5.84015625 52.7569531,4.78015625 54.6169531,4.78015625 C56.4369531,4.78015625 57.7369531,5.68015625 57.7369531,7.88015625 L57.7369531,15.6601563 L54.5169531,15.6601563 L54.5169531,8.90015625 C54.5169531,7.94015625 54.1569531,7.44015625 53.2769531,7.44015625 C52.3969531,7.44015625 51.6569531,7.88015625 50.9369531,8.50015625 L50.9369531,15.6601563 L47.7169531,15.6601563 Z M65.5569531,3.54015625 L65.5569531,0.96015625 L68.7969531,0.96015625 L68.7969531,3.54015625 L65.5569531,3.54015625 Z M65.5769531,15.6601563 L65.5769531,5.00015625 L68.7769531,5.00015625 L68.7769531,15.6601563 L65.5769531,15.6601563 Z M75.5369531,15.8801563 C73.1969531,15.8801563 71.6369531,15.1601563 70.5569531,14.2401563 L71.8369531,12.4401563 C72.7969531,13.2801563 74.2369531,13.8201563 75.5369531,13.8201563 C76.5369531,13.8201563 77.2369531,13.4801563 77.2369531,12.7801563 C77.2369531,12.0401563 76.6769531,11.7601563 75.2169531,11.5001563 C73.1969531,11.1401563 71.0369531,10.6601563 71.0369531,8.16015625 C71.0369531,6.02015625 72.7969531,4.78015625 75.1769531,4.78015625 C77.3569531,4.78015625 78.6769531,5.34015625 79.8569531,6.28015625 L78.5969531,8.10015625 C77.5169531,7.36015625 76.4569531,6.94015625 75.4569531,6.94015625 C74.5369531,6.94015625 74.0169531,7.30015625 74.0169531,7.88015625 C74.0169531,8.52015625 74.5969531,8.78015625 75.9169531,9.02015625 C78.0169531,9.38015625 80.2369531,9.86015625 80.2369531,12.2801563 C80.2369531,14.8601563 77.9969531,15.8801563 75.5369531,15.8801563 Z M91.8769531,15.8001563 C88.7169531,15.8001563 88.2569531,14.6601563 88.2569531,12.6601563 L88.2569531,7.34015625 L86.4769531,7.34015625 L86.4769531,5.00015625 L88.2569531,5.00015625 L88.2569531,1.34015625 L91.4569531,1.34015625 L91.4569531,5.00015625 L94.1969531,5.00015625 L94.1969531,7.34015625 L91.4569531,7.34015625 L91.4569531,11.9601563 C91.4569531,13.1001563 91.7769531,13.4601563 92.9369531,13.4601563 C93.2969531,13.4601563 93.7769531,13.4201563 93.9969531,13.3401563 L93.9969531,15.6401563 C93.7569531,15.7001563 92.5769531,15.8001563 91.8769531,15.8001563 Z M95.9369531,15.6601563 L95.9369531,0.86015625 L99.1569531,0.86015625 L99.1569531,6.68015625 C99.7969531,5.84015625 100.976953,4.78015625 102.836953,4.78015625 C104.656953,4.78015625 105.956953,5.68015625 105.956953,7.88015625 L105.956953,15.6601563 L102.736953,15.6601563 L102.736953,8.90015625 C102.736953,7.94015625 102.376953,7.44015625 101.496953,7.44015625 C100.616953,7.44015625 99.8769531,7.88015625 99.1569531,8.50015625 L99.1569531,15.6601563 L95.9369531,15.6601563 Z M113.156953,15.8801563 C110.376953,15.8801563 107.716953,14.4601563 107.716953,10.3401563 C107.716953,6.20015625 110.876953,4.78015625 113.076953,4.78015625 C115.276953,4.78015625 117.976953,5.88015625 117.976953,10.7201563 L117.976953,11.2001563 L110.916953,11.2001563 C111.076953,12.9601563 112.056953,13.6401563 113.396953,13.6401563 C114.656953,13.6401563 115.836953,13.0201563 116.556953,12.3601563 L117.796953,14.2801563 C116.556953,15.3401563 115.016953,15.8801563 113.156953,15.8801563 Z M110.956953,9.30015625 L115.096953,9.30015625 C114.936953,7.80015625 114.256953,7.08015625 113.056953,7.08015625 C112.056953,7.08015625 111.196953,7.74015625 110.956953,9.30015625 Z" id="Glitch-is-the" fill="#FFFFFF"></path>
                        </g>
                    </g>
                    <g id="witch" transform="translate(0.137910, 5.590021)">
                        <ellipse id="Oval-Copy" stroke="#000000" stroke-width="2.5" fill="#2B2089" fill-rule="nonzero" transform="translate(68.561128, 95.100365) rotate(-11.000000) translate(-68.561128, -95.100365) " cx="68.5611285" cy="95.1003645" rx="53.5" ry="14.5"></ellipse>
                        <polygon id="Path-36-Copy-2" stroke="#000000" stroke-width="2.5" fill="#6B58FF" fill-rule="nonzero" transform="translate(68.934774, 44.354543) rotate(3.000000) translate(-68.934774, -44.354543) " points="49.127659 85.8266097 67.1055353 1.88940098 88.7418886 86.8196844"></polygon>
                        <path d="M69.5483528,77.4327755 L67.5077358,9.07127739 C67.506504,9.03001282 67.5297445,8.99302477 67.5642227,8.98137642 C67.6059484,8.96727952 67.6497206,8.99471338 67.6619907,9.04265168 L85.8101341,79.9464532 L69.5483528,77.4327755 Z" id="Path-11-Copy" fill="#6051D9" fill-rule="nonzero" transform="translate(76.658912, 44.462065) rotate(3.000000) translate(-76.658912, -44.462065) "></path>
                        <g id="witch-copy" transform="translate(0.855469, 75.195312)">
                            <g id="broom-end" transform="translate(95.000000, 36.000000)" fill-rule="nonzero">
                                <path d="M84.7428835,17.777963 L90.9026157,10.5320299 C91.4624312,9.87349712 92.4500976,9.79347094 93.1086304,10.3532864 C93.4914877,10.6787516 93.6947759,11.1682629 93.6551118,11.6691961 L92.8460712,21.8868896 L109.223215,8.007855 C109.882603,7.4490474 110.870146,7.53058414 111.428954,8.18997239 C111.867514,8.70747012 111.922762,9.44858279 111.565779,10.025386 L101.075476,26.975301 L112.56207,21.1985228 C113.334244,20.8101851 114.275025,21.1213459 114.663362,21.8935198 C114.979105,22.5213449 114.837639,23.2826505 114.317437,23.7551406 L103.518676,33.5634479 L112.387059,32.1179613 C113.240127,31.9789169 114.044393,32.5577477 114.183438,33.4108159 C114.256936,33.861742 114.129716,34.3222701 113.83517,34.6715251 L26.4858111,138.245168 L9.46209674,118.113665 L82.5420492,10.0215413 C83.0261518,9.30550811 83.999054,9.11749117 84.7150872,9.60159371 C85.1902948,9.92287662 85.4516532,10.4783933 85.3962164,11.0493327 L84.7428835,17.777963 Z" id="Path-42" stroke="#000000" stroke-width="2.5" fill="#E09232" transform="translate(62.304068, 72.597282) rotate(10.000000) translate(-62.304068, -72.597282) "></path>
                                <path d="M80.1076471,22.4133245 L79.5728005,27.9216717 C79.5223617,28.4411378 79.9025834,28.9031371 80.4220495,28.9535759 C80.72996,28.9834732 81.0330074,28.8607682 81.233376,28.6250668 L86.3038417,22.6604804 C86.4165202,22.5279322 86.6153157,22.5118247 86.7478638,22.6245033 C86.8249245,22.6900122 86.865842,22.7885401 86.8578585,22.8893669 L86.1969685,31.236007 C86.1557725,31.7562876 86.5441474,32.2114544 87.0644281,32.2526504 C87.3131781,32.2723466 87.5596219,32.1928594 87.7499856,32.0315331 L100.982937,20.8170871 C101.115658,20.7046115 101.314428,20.721023 101.426904,20.8537433 C101.515176,20.9579042 101.526297,21.1070739 101.454444,21.2231717 L93.6802421,33.784492 C93.4055802,34.2282824 93.5426859,34.8107031 93.9864763,35.085365 C94.3115214,35.2865355 94.7257486,35.2720678 95.0359662,35.0487095 L101.979397,30.0494045 C102.120579,29.9477527 102.317434,29.9797983 102.419086,30.1209804 C102.502813,30.2372668 102.497505,30.3954103 102.406169,30.5058209 L94.3108915,40.2917302 C93.9782222,40.6938747 94.034543,41.2895591 94.4366876,41.6222284 C94.6468451,41.7960787 94.921868,41.8706498 95.1910611,41.8267732 L103.195388,40.5221218 C103.367092,40.4941352 103.528973,40.6106411 103.55696,40.7823449 C103.571753,40.8731064 103.546147,40.9658006 103.486861,41.0360979 L33.0402664,124.567455 L20.4189137,109.641993 L79.5331662,22.2064528 C79.6306053,22.0623311 79.8264291,22.0244874 79.9705508,22.1219266 C80.0661996,22.1865937 80.1188053,22.298407 80.1076471,22.4133245 Z" id="Path-42-Copy" fill="#BB6E10" transform="translate(61.989989, 72.654923) rotate(10.000000) translate(-61.989989, -72.654923) "></path>
                            </g>
                            <ellipse id="shoe" stroke="#000000" stroke-width="2.5" fill="#A9774A" fill-rule="nonzero" transform="translate(122.531255, 190.531951) rotate(7.000000) translate(-122.531255, -190.531951) " cx="122.531255" cy="190.531951" rx="10.2135714" ry="15.6608095"></ellipse>
                            <g id="skirt" transform="translate(12.000000, 82.028714)" fill-rule="nonzero">
                                <path d="M41.5863232,31.6075458 C28.2599177,31.6416797 20.5500898,35.2177596 18.4568396,42.3357854 C15.3169643,53.0128242 19.5234131,52.4148656 18.8597969,67.3151489 C18.1961808,82.2154322 8.09498525,91.3343303 14.9771769,107.037696 C21.8593686,122.741062 33.8815933,123.456544 42.5604692,121.919189 C51.2393451,120.381834 58.0776503,104.40185 67.8483676,98.8668392 C77.619085,93.3318283 113.659959,93.8773226 117.679159,80.5995605 C120.358626,71.7477191 104.396906,54.3469277 69.7939998,28.3971862 L41.5863232,31.6075458 Z" id="Path-43" stroke="#000000" stroke-width="2.5" fill="#6BA9FC"></path>
                                <path d="M56.7317995,39.1121269 C37.2178493,35.1069352 26.4142491,36.6633523 24.3209989,43.7813781 C21.1811236,54.458417 26.9734687,52.0837225 26.3098525,66.9840058 C25.6462364,81.8842891 15.5450408,91.0031872 22.4272325,106.706553 C29.3094242,122.409919 35.9894722,115.799026 44.6683482,114.26167 C53.3472241,112.724315 51.8138585,83.6262756 61.5845758,78.0912647 C71.3552931,72.5562537 121.110015,93.5461795 125.129215,80.2684174 C127.808681,71.416576 111.846961,54.0157845 77.2440554,28.0660431 L56.7317995,39.1121269 Z" id="Path-43-Copy" fill="#A2D7FF"></path>
                                <path d="M4.28552118,132.507141 C0.725884774,135.660015 0.0234619388,138.733185 2.17825267,141.726651 C4.3330434,144.720117 7.21126109,145.008511 10.8129057,142.591834 L100.838107,70.0688906 L93.6884306,63.2674414 L4.28552118,132.507141 Z" id="Combined-Shape" stroke="#000000" stroke-width="2.5" fill="#FFC772"></path>
                                <path d="M85.8019111,60.5366888 C69.2341152,80.4704417 74.2673135,102.182704 86.135714,111.317289 C103.938315,125.019168 120.333225,101.381665 129.032714,88.9405245 C133.3936,82.7040202 136.029991,75.1104473 141.439277,69.8206657 C146.820923,64.5579143 154.972623,61.5916388 160.422157,58.2306559 C171.349216,51.4914277 174.188716,37.4065774 170.198194,26.5227033 C167.148752,18.205558 156.506955,22.0908378 143.451404,19.3392911 C137.023807,17.9846309 143.243941,4.34475752 131.747024,1.18759365 C124.38877,-0.833053532 109.468948,2.28184036 100.220601,8.02190921" id="Path" stroke="#000000" stroke-width="2.5" fill="#6BA9FC"></path>
                                <path d="M84.323736,60.1217625 C67.7559401,80.0555153 73.115627,96.9216504 84.9840275,106.056236 C102.786628,119.758114 114.183139,102.114436 122.882628,89.6732951 C127.243514,83.4367908 132.328237,72.4772609 137.737523,67.1874793 C143.119168,61.9247279 149.002737,59.5110226 154.452272,56.1500397 C165.37933,49.4108114 169.464939,40.973348 165.474418,30.0894739 C162.424975,21.7723287 151.680777,25.959494 138.625226,23.2079472 C132.197629,21.8532871 138.728292,7.1295516 127.231375,3.97238773 C119.873121,1.95174055 104.695965,8.7810231 95.4476186,14.5210919" id="Path-Copy" fill="#A2D7FF"></path>
                                <path d="M84.323736,60.1217625 C67.7559401,80.0555153 73.115627,96.9216504 84.9840275,106.056236" id="Path-Copy-3" stroke="#000000" stroke-width="2.5" fill="#A2D7FF"></path>
                                <path d="" id="Path-Copy-2" stroke="#000000" stroke-width="1.575" fill="#A2D7FF"></path>
                                <path d="M93.7045637,98.8650984 C111.352109,102.94832 117.745761,82.642315 125.411169,50.779975 C130.521442,29.538415 126.407443,19.0247607 113.069174,19.2390121 C114.759236,17.0685736 114.914371,12.4335309 113.534579,5.33388394 C116.109982,4.83068301 118.179852,3.65542694 120.513488,3.32988919 C122.545362,3.04644655 125.515194,3.02643418 129.422985,3.26985208 L135.363787,7.67986955 L138.29644,21.4118829 L163.124809,23.7089032 L168.856062,31.4965778 L167.953463,44.7688303 L159.123062,57.0158194 L141.086249,66.6471425 L130.235152,82.3942132 L120.085414,97.6150969 L109.47591,109.068579 C99.1503081,112.220704 93.0575922,113.542933 91.1977627,113.035268 C84.8380154,111.29929 93.7357515,98.9432106 93.7045637,98.8650984 Z" id="Path-12" fill="#6BA9FC"></path>
                            </g>
                            <path d="M40.4679547,41.3081625 C43.9487256,52.8561603 48.6232964,64.7817968 54.491667,77.085072 C62.7969636,75.4560153 83.619433,95.1349236 118.472111,79.7421964 C124.751881,76.9687288 143.456794,56.5920995 137.1684,46.84798 C130.880005,37.1038605 97.4531666,36.1297145 95.1371595,27.2646537 C93.5931548,21.3546132 85.4320502,17.0080825 70.6538458,14.2250616 L40.4679547,41.3081625 Z" id="hair" stroke="#000000" stroke-width="2.5" fill="#E25A35" fill-rule="nonzero" transform="translate(89.455286, 49.943556) rotate(5.000000) translate(-89.455286, -49.943556) "></path>
                            <path d="M113.713405,125.130517 C116.93779,121.618332 129.206318,108.251788 115.985526,72.3637229 C114.808396,69.1683837 108.92058,65.5449621 98.0737117,56.958787 C90.2827044,56.9037526 86.2422112,54.6654532 86.2005973,54.7785595 C82.4622893,64.9392611 83.2534656,64.2238 80.1209955,64.9196518 C75.8690958,65.8641754 74.8399939,66.4011516 70.9946109,64.6018076 C70.057525,64.1633233 66.810815,60.8135467 61.2544811,54.5524779 L55.2879201,77.169953 L51.1532856,99.2150272 L61.0476829,112.818376 C61.8535975,125.141302 63.4906947,131.948355 65.9589744,133.239534" id="body" stroke="#000000" stroke-width="1.575" fill="#A2D7FF" fill-rule="nonzero"></path>
                            <g id="face" transform="translate(70.614175, 33.712138) rotate(5.000000) translate(-70.614175, -33.712138) translate(42.614175, 5.712138)" fill-rule="nonzero">
                                <path d="M46.2099194,10.5509926 C50.3633624,9.58664946 53.1128615,10.7047692 54.458417,13.9053519 C56.0266964,17.6357133 54.6760865,20.8325492 50.4065874,23.4958593 C53.2186089,35.9900401 51.9265435,49.5243308 34.3890151,54.5827619 C11.5521078,61.1697175 3.14054022,39.2052194 1.05043206,30.9706462 C-1.0396761,22.7360731 -0.72905403,7.89638771 18.6077138,3.27726328 C36.9142805,-1.09576896 41.1841791,-1.56237471 46.2099194,10.5509926 Z" id="Combined-Shape" stroke="#000000" stroke-width="2.5" fill="#FFFFFF"></path>
                                <g id="Group-Copy" transform="translate(34.093615, 29.287251) rotate(-1.000000) translate(-34.093615, -29.287251) translate(28.593615, 22.787251)">
                                    <ellipse id="Oval" stroke="#000000" stroke-width="2.5" fill="#000000" transform="translate(3.935751, 8.787954) rotate(-13.000000) translate(-3.935751, -8.787954) " cx="3.9357512" cy="8.78795369" rx="2.2778154" ry="3.13199617"></ellipse>
                                    <path d="M2.42246741,10.6202886 C1.333604,8.84536503 0.822246538,7.26158024 0.888395027,5.8689342 C0.957144051,4.42153826 1.30094051,2.79386229 3.41395309,1.73557173 C5.52696567,0.677281169 8.78041883,1.12901217 10.2087505,3.88205217" id="Path-29" stroke="#000000" stroke-width="2.5" stroke-linecap="round" transform="translate(5.545731, 5.914829) rotate(4.000000) translate(-5.545731, -5.914829) "></path>
                                    <ellipse id="Oval" fill="#FFFFFF" transform="translate(3.105120, 8.480166) rotate(-18.000000) translate(-3.105120, -8.480166) " cx="3.10512022" cy="8.48016578" rx="1" ry="1.43186159"></ellipse>
                                </g>
                                <g id="Group-Copy-2" transform="translate(18.092042, 34.916491) rotate(-1.000000) translate(-18.092042, -34.916491) translate(12.592042, 28.916491)">
                                    <ellipse id="Oval" stroke="#000000" stroke-width="2.5" fill="#000000" transform="translate(3.935751, 7.787954) rotate(-13.000000) translate(-3.935751, -7.787954) " cx="3.9357512" cy="7.78795369" rx="2.2778154" ry="3.13199617"></ellipse>
                                    <path d="M2.79634355,10.148809 C1.70748013,8.37388546 1.19612267,6.79010067 1.26227116,5.39745463 C1.33102018,3.9500587 1.67481664,2.32238272 3.78782922,1.26409216 C5.9008418,0.205801604 9.15429497,0.657532608 10.5826267,3.41057261" id="Path-29" stroke="#000000" stroke-width="2.5" stroke-linecap="round" transform="translate(5.919608, 5.443350) rotate(4.000000) translate(-5.919608, -5.443350) "></path>
                                    <ellipse id="Oval" fill="#FFFFFF" transform="translate(3.178759, 7.490486) rotate(-18.000000) translate(-3.178759, -7.490486) " cx="3.17875931" cy="7.49048611" rx="1" ry="1.43186159"></ellipse>
                                </g>
                            </g>
                            <g id="hair-top" transform="translate(67.131043, 20.912619) rotate(5.000000) translate(-67.131043, -20.912619) translate(39.631043, 2.912619)" fill-rule="nonzero" stroke="#000000">
                                <path d="M2.97496865,35.6967019 C12.1277294,32.1763667 16.8579894,30.0871062 17.1657486,29.4289204 C17.6273874,28.4416417 15.3991316,25.0959235 15.2292595,22.9894166 C14.8657002,18.4810823 17.2445798,16.1802499 18.0993329,16.0748088 C18.5170853,16.0232754 18.8793735,18.9768323 23.4466628,22.7287577 C25.2857912,24.2395603 29.2248778,27.4284302 30.9499141,27.1406748 C32.6749504,26.8529194 34.0492277,20.7598524 38.9292668,17.1950766 C43.2685709,14.0252975 52.2648021,13.9064867 54.4969838,12.7558968 C48.6635586,1.11967968 37.8636889,-2.17717508 22.0973746,2.86533251 C3.52055501,9.93592556 -2.8535803,20.8797154 2.97496865,35.6967019 Z" id="Path-31" stroke-width="2.5" fill="#FF5C30"></path>
                                <path d="M39.4080279,7.21822603 C45.2361693,9.15188915 48.3286672,11.5824886 48.6855215,14.5100245" id="Path-33" stroke-width="1.575" stroke-linecap="round"></path>
                            </g>
                            <path d="M92.7922075,31.7375138 C97.9020963,28.9540496 99.6105644,25.5488608 97.9176117,21.5219475 C96.2246591,17.4950342 92.2336528,15.3698666 87.7652154,20.5112295" id="ear" stroke="#000000" stroke-width="2.5" fill="#FFFFFF" fill-rule="nonzero" transform="translate(93.157394, 24.609284) rotate(5.000000) translate(-93.157394, -24.609284) "></path>
                            <path d="M55.0878279,120.243528 C57.4142525,129.631242 59.4254926,136.238026 61.1215484,140.06388 C63.665632,145.80266 65.8332314,150.444442 64.7600085,155.44432 C63.6867856,160.444198 65.0792491,166.664145 65.7082881,171.700079 C66.337327,176.736014 70.8004229,179.45093 75.3193962,178.009327 C79.8383696,176.567724 79.741261,174.19564 80.0059095,168.343949 C80.2705581,162.492257 77.5169662,159.640085 74.6666742,151.047933 C73.574404,147.755305 71.7028327,138.920636 70.0173308,130.52901 C69.1861823,126.390962 67.4989478,119.990926 64.9556273,111.328901 L59.7264916,109.103992 L55.0878279,120.243528 Z" id="left-arm" stroke="#000000" stroke-width="1.575" fill="#FFFFFF" fill-rule="nonzero" transform="translate(67.555698, 143.749240) rotate(-4.000000) translate(-67.555698, -143.749240) "></path>
                            <path d="M63.2155913,60.9499649 C60.4966269,60.4419461 58.0715686,60.2431272 53.9070115,61.9856501 C49.7424543,63.728173 44.8862313,67.0230913 43.7147184,88.3144041 C43.2180036,97.3417975 43.055461,103.500751 44.297876,111.711282 C45.1716921,117.485917 51.1441606,131.383711 53.3431372,133.597316 C55.5421138,135.810922 55.8260458,138.587736 62.1323942,136.776423 C68.4387426,134.96511 72.094616,133.028787 70.9542335,129.78917 C70.1741149,127.572997 62.9416335,119.86751 61.9462093,108.302103 C61.5205985,103.357114 62.9180172,86.5193267 64.3426749,82.2641457" id="Path-37" stroke="#000000" stroke-width="2.5" fill="#A2D7FF" fill-rule="nonzero" transform="translate(57.252842, 98.977071) rotate(2.000000) translate(-57.252842, -98.977071) "></path>
                            <g id="shadows" transform="translate(56.000000, 80.000000)" fill="#6BA9FC" fill-rule="nonzero">
                                <path d="M9.6654619,49.003811 C8.23217068,47.2490184 1.77344659,37.5852925 1.03652012,27.8283728 C0.689124224,23.2288449 2.42258894,4.92215227 3.40414367,1.53698761 C3.493482,1.22887949 3.67735338,1.0603044 4.02046554,0.953746798 C4.56604505,0.784310525 5.45330474,1.35472342 6.6822446,2.66498547 C5.63861177,8.41322247 5.04403917,12.8706329 4.89852681,16.0372169 C4.78911712,18.4181482 4.19218786,24.0715938 4.4450336,28.6199911 C4.58347837,31.1104497 5.47287155,34.3908008 7.26756336,38.5772258 C7.94455596,40.1564266 9.78883121,43.7186071 12.8003891,49.2637674 L9.6654619,49.003811 Z" id="Path" transform="translate(6.895802, 25.094206) rotate(2.000000) translate(-6.895802, -25.094206) "></path>
                                <path d="M40.9686506,62.6951918 L43.0254119,64.237742 C37.6205087,73.0663415 34.8517841,81.41618 34.7192382,89.2872573 C33.9557091,88.7113572 31.1976839,88.809826 30.1713397,88.5089379 C29.6736631,88.3630366 29.5191107,83.0822716 33.38012,74.3172852 C33.9850792,72.9439502 35.1674119,70.8928545 37.1449199,67.7698938 C37.8210485,66.7021241 39.0956254,65.0105568 40.9686506,62.6951918 Z" id="Path-44"></path>
                                <path d="M8.64823211,5.03223383 C18.7730134,14.9848671 25.9598058,19.5697255 30.2086092,18.7868092 C39.1182214,17.1450574 41.8808885,7.45351493 47.5437529,6.11360235 C59.6537504,3.2482083 63.2630776,16.1670019 58.3717344,44.8699832 C56.0640292,52.6520817 52.4974802,57.0267618 47.6720875,57.9940234 C44.9039482,58.5489037 34.4280653,63.1831337 27.8600198,61.0674041 C16.6872637,57.4683836 8.30075457,39.0773084 7.03956137,32.9873972 C5.84016492,27.1958833 6.24603987,20.5321856 7.79410891,9.83314435 C7.99113543,8.4714513 8.27584316,6.87114779 8.64823211,5.03223383 Z" id="body-shadow" transform="translate(33.411868, 33.324701) rotate(2.000000) translate(-33.411868, -33.324701) "></path>
                            </g>
                            <path d="M66.6242128,52.8129725 C66.7897843,51.8963443 78.0293675,44.3728122 79.4699731,44.6670508 C80.9105787,44.9612894 82.9682543,50.6512328 76.8361218,54.0078805 C70.7039893,57.3645282 66.4586412,53.7296006 66.6242128,52.8129725 Z" id="mouth" stroke="#000000" stroke-width="2.5" fill-rule="nonzero" transform="translate(73.808266, 50.031092) rotate(2.000000) translate(-73.808266, -50.031092) "></path>
                            <g id="laptop" transform="translate(0.888683, 107.375843)">
                                <path d="M70.5494465,59.867038 L111.851568,64.5022619 C112.024516,64.5216719 112.148984,64.6776093 112.129574,64.8505578 C112.123721,64.9027053 112.104938,64.9525656 112.074931,64.9956137 C104.729453,75.5331076 98.1899804,84.5519433 92.4565129,92.0521209 C92.1269372,92.483252 91.8824846,92.7724646 90.5229714,93.1042571 C88.9990731,93.4761681 64.1833296,90.4512521 16.0757408,84.0295089 C14.1458667,83.7163858 13.0468395,83.4538444 12.7786592,83.2418846 C11.4789263,82.214624 12.1410469,80.6120555 12.1410469,79.2974138 C12.1410469,77.4302132 31.6105134,70.9534213 70.5494465,59.867038 Z" id="Path-4" stroke="#000000" stroke-width="2.5" fill="#45DB9F"></path>
                                <path d="M91.0420191,12.5111555 C93.3684437,21.8988699 95.3796839,28.5056539 97.0757396,32.3315076 C99.6198232,38.0702882 104.03741,45.9253855 102.964187,50.9252632 C101.890965,55.9251409 101.03344,58.9317723 101.662479,63.9677072 C102.291518,69.0036421 106.754614,71.7185577 111.273587,70.2769547 C115.792561,68.8353516 116.27772,67.3595718 116.542368,61.5078803 C116.807017,55.6561888 115.721145,55.1210279 112.870853,46.528876 C111.778583,43.2362479 107.657024,31.188264 105.971522,22.7966379 C105.140373,18.6585899 102.215244,12.889041 97.1961327,5.48799129 L95.6806828,1.37161933 L91.0420191,12.5111555 Z" id="right-arm" stroke="#000000" stroke-width="2.5" fill="#FFFFFF" fill-rule="nonzero" transform="translate(103.811451, 36.016868) rotate(36.000000) translate(-103.811451, -36.016868) "></path>
                                <path d="M65.2923997,68.3813489 L99.6682167,71.8668046 C99.841299,71.8843539 99.9673834,72.0388913 99.9498341,72.2119736 C99.94382,72.2712881 99.9210968,72.327678 99.8843051,72.3745901 L88.0973729,87.403784 L65.2923997,68.3813489 Z" id="Path-5" fill="#313131" fill-rule="nonzero"></path>
                                <path d="M10.8326357,77.7866833 L0.632280591,16.7393319 C0.517596638,16.0529684 0.98103449,15.4035911 1.667398,15.2889072 C1.78370953,15.2694728 1.90217344,15.2664627 2.01932187,15.279965 L77.8638046,24.0216625 C79.2557384,24.1820942 80.3743834,25.2426436 80.6087504,26.6240523 L90.6602764,85.8698797 C90.9512716,87.585067 89.7967358,89.2113991 88.0815485,89.5023943 C87.773042,89.5547349 87.4584584,89.5608151 87.1481598,89.5204346 L12.9929816,79.8703052 C11.8926774,79.727118 11.0154998,78.881093 10.8326357,77.7866833 Z" id="Path-3" stroke="#000000" stroke-width="2.5" fill="#83FFCD"></path>
                                <path d="M89.3754968,86.7160704 L2.03867282,16.7314667 L77.0038727,25.1815486 C78.4063801,25.3396394 79.532541,26.4113401 79.7598998,27.8042965 L89.3754968,86.7160704 Z" id="Path-3-Copy" fill="#8FF0C9"></path>
                                <g id="pineapple" transform="translate(42.917450, 52.657099) rotate(-3.000000) translate(-42.917450, -52.657099) translate(29.417450, 32.157099)" fill-rule="nonzero" stroke="#000000" stroke-width="2.5">
                                    <path d="M14.5655697,39.6433913 C21.9601833,39.5845332 23.757784,34.4608491 23.757784,28.0678593 C23.757784,21.6748696 21.4910817,16.5538718 14.5655697,16.4923274 C7.64005774,16.4307829 5.37335544,21.6748696 5.37335544,28.0678593 C5.37335544,34.4608491 7.1709561,39.7022494 14.5655697,39.6433913 Z" id="Oval" fill="#F0E45F" transform="translate(14.565570, 28.067837) rotate(-8.000000) translate(-14.565570, -28.067837) "></path>
                                    <path d="M7.18460913,18.784992 C2.01611671,14.7691978 -0.239912264,11.9141854 0.416522209,10.2199549 C0.833959339,8.54615368 3.85173928,12.7613007 7.18460913,12.424916 C6.28819169,6.93491349 6.11568775,3.02883384 6.66709729,0.706677054 L6.66713075,0.706684999 C6.7475114,0.368177162 7.0870876,0.158923725 7.42559544,0.239304367 C7.60183996,0.281154647 7.75154023,0.396847593 7.83647644,0.55684577 C11.545803,7.54427183 13.8095347,10.5437172 14.6276718,9.5551819 C17.1766025,6.47537009 21.0878419,4.24497445 21.3899847,5.09348678 C21.7397393,6.07570805 20.3202195,11.2434399 20.3202195,12.424916 C20.3202195,13.6063922 26.3547379,11.2103083 26.3547379,12.424916 C26.3547379,13.2346544 24.6998202,15.3546798 21.3899847,18.784992 C19.6760197,16.9947799 17.1673113,16.0996739 13.8638593,16.0996739 C10.5604073,16.0996739 8.33399055,16.9947799 7.18460913,18.784992 Z" id="Path-6" fill="#00695A" stroke-linejoin="round"></path>
                                    <path d="M5.78769046,28.9384523 L22.2843371,35.4773102" id="Path-7" fill="#F0E45F"></path>
                                    <path d="M6.47635293,21.986663 L23.8079502,29.3451776" id="Path-8" fill="#F0E45F"></path>
                                    <path d="M15.4254186,16.7646199 L8.68175734,37.9850434" id="Path-9" fill="#F0E45F"></path>
                                    <path d="M20.2866175,18.784992 L13.6657497,39.5059967" id="Path-10" fill="#F0E45F"></path>
                                </g>
                            </g>
                            <path d="M59.4744491,61.3420503 C65.8610343,62.4106622 71.1429225,62.2523462 75.3201136,60.8671023 C79.4973047,59.4818583 82.9073698,57.8855895 85.5503087,56.0782957 C87.135992,55.0313045 89.5040865,54.6575981 92.6545923,54.9571765 C99.3545888,55.5942723 104.737761,60.2182969 108.975693,64.0991686 C112.902865,67.6954625 117.586745,75.1131212 120.727285,80.1076378 C123.563215,84.6177222 125.804813,91.2559069 125.582721,95.8662298 C125.070008,106.509439 115.021055,143.316506 113.400725,145.378803 C111.780396,147.441099 108.441033,150.136638 102.840638,148.032678 C97.2402438,145.928719 96.8465107,145.180967 96.3256878,142.031781 C96.059614,140.422951 108.834725,107.676401 107.452302,99.4117013 C106.582705,94.2128911 100.125399,83.1472799 96.6462635,78.4432023" id="right-arm" stroke="#000000" stroke-width="2.5" fill="#A2D7FF" fill-rule="nonzero" transform="translate(92.536181, 101.826625) rotate(2.000000) translate(-92.536181, -101.826625) "></path>
                            <path d="M64.6347781,62.7153911 C68.8973349,67.8057182 73.6205756,69.278953 78.8045003,67.1350955 C83.988425,64.9912381 86.6820154,60.8125751 86.8852715,54.5991068 C82.3453319,57.5056492 78.8308856,59.4620432 76.3419328,60.4682889 C73.8529799,61.4745346 69.950595,62.2235686 64.6347781,62.7153911 Z" id="neck" stroke="#000000" stroke-width="2.5" fill="#FFFFFF" fill-rule="nonzero" transform="translate(75.760025, 61.343602) rotate(6.000000) translate(-75.760025, -61.343602) "></path>
                        </g>
                        <path d="M27.2151161,93.5703435 C38.5718869,86.2192586 50.0963542,80.8952692 62.7226563,77.9857588 C81.6621094,73.6214933 114.00293,74.5209101 120.806641,84.05625 C123.876953,92.45625 97.4589844,95.5703435 87.5791016,95.5703435 C77.6992188,95.5703435 75.1875,94.6499418 58.1298828,92.45625 C48.6816426,91.2411608 42.1701942,91.5738714 27.2151161,93.5703435 Z" id="Path-14-Copy" stroke="#000000" stroke-width="2.5" fill="#6B58FF" fill-rule="nonzero"></path>
                    </g>
                    <g id="decorations" transform="translate(147.000000, 20.000000)" stroke="#000000" stroke-width="1.5">
                        <path d="M14.898866,83.5692852 C14.898866,85.9312992 13.024968,87.8459106 10.7126277,87.8459106 C8.40139462,87.8459106 6.52694306,85.9312992 6.52694306,83.5692852 C6.52694306,81.2067056 8.40139462,79.2920942 10.7126277,79.2920942 C13.024968,79.2920942 14.898866,81.2067056 14.898866,83.5692852 Z" id="Stroke-285" fill="#FFFFFF"></path>
                        <path d="M55.0774189,188.286447 C55.0774189,190.648461 53.2035209,192.563072 50.8911806,192.563072 C48.5799475,192.563072 46.705496,190.648461 46.705496,188.286447 C46.705496,185.923867 48.5799475,184.009256 50.8911806,184.009256 C53.2035209,184.009256 55.0774189,185.923867 55.0774189,188.286447 Z" id="Stroke-285-Copy-2" fill="#FFFFFF"></path>
                        <path d="M72.4805344,11.8625811 C72.4805344,14.2245951 70.55636,16.1392065 68.1819801,16.1392065 C65.808737,16.1392065 63.8839942,14.2245951 63.8839942,11.8625811 C63.8839942,9.50000149 65.808737,7.58539006 68.1819801,7.58539006 C70.55636,7.58539006 72.4805344,9.50000149 72.4805344,11.8625811 Z" id="Stroke-285" fill="#FFFFFF"></path>
                        <path d="M155.345726,20.3100647 C155.345726,22.6720787 153.421552,24.5866901 151.047172,24.5866901 C148.673929,24.5866901 146.749186,22.6720787 146.749186,20.3100647 C146.749186,17.9474851 148.673929,16.0328737 151.047172,16.0328737 C153.421552,16.0328737 155.345726,17.9474851 155.345726,20.3100647 Z" id="Stroke-285-Copy-3" fill="#FFFFFF"></path>
                        <path d="M255.786828,17.2871526 C255.786828,19.6491666 253.862654,21.563778 251.488274,21.563778 C249.11503,21.563778 247.190288,19.6491666 247.190288,17.2871526 C247.190288,14.924573 249.11503,13.0099616 251.488274,13.0099616 C253.862654,13.0099616 255.786828,14.924573 255.786828,17.2871526 Z" id="Stroke-285-Copy-4" fill="#FFFFFF"></path>
                        <polygon id="Fill-287" fill="#1CFEFE" points="42.5110182 78.0919357 46.4014316 80.577254 42.052286 82.1377896 40.8795912 86.5880592 38.0436368 82.9551053 33.4278922 83.2192481 36.0239643 79.4132155 34.3447882 75.1275403 38.7848845 76.4075301 42.362655 73.4940402"></polygon>
                        <polygon id="Fill-287-Copy-3" fill="#1CFEFE" points="207.289752 23.4945619 211.180165 25.9798803 206.831019 27.5404158 205.658325 31.9906855 202.82237 28.3577315 198.206626 28.6218743 200.802698 24.8158418 199.123522 20.5301665 203.563618 21.8101564 207.141388 18.8966664"></polygon>
                        <polygon id="Fill-287-Copy-5" fill="#1CFEFE" points="301.09206 116.440716 304.982474 118.926034 300.633328 120.48657 299.460633 124.93684 296.624679 121.303886 292.008934 121.568028 294.605006 117.761996 292.92583 113.476321 297.365927 114.75631 300.943697 111.84282"></polygon>
                        <polygon id="Fill-287" fill="#1CFEFE" points="9.79209169 109.152364 13.682505 111.637682 9.33335944 113.198218 8.16066471 117.648488 5.32471028 114.015534 0.708965645 114.279676 3.30503778 110.473644 1.62586172 106.187969 6.06595794 107.467958 9.64372847 104.554468"></polygon>
                        <polygon id="Fill-291-Copy" fill="#FF8975" points="57.0463749 40.4835477 59.6509737 42.1470254 56.7394165 43.1922845 55.9543989 46.1713859 54.0558044 43.7392355 50.9663251 43.9162734 52.7040506 41.3681717 51.5796734 38.4987998 54.5526222 39.3562742 56.9474661 37.406029"></polygon>
                        <polygon id="Fill-299" fill="#FEBD0F" points="29.4064672 53.6882266 31.7546989 48.9596737 34.103499 53.6882266 31.7546989 57.9145121"></polygon>
                        <polygon id="Fill-299" fill="#FEBD0F" points="60.0701044 64.8038276 62.4183361 60.0752747 64.7671362 64.8038276 62.4183361 69.0301131"></polygon>
                        <polygon id="Fill-287-Copy-4" fill="#1CFEFE" points="173.269246 150.384992 177.159659 152.87031 172.810513 154.430846 171.637819 158.881116 168.801864 155.248162 164.186119 155.512304 166.782192 151.706272 165.103016 147.420597 169.543112 148.700586 173.120882 145.787096"></polygon>
                        <polygon id="Fill-291-Copy-3" fill="#FF8975" points="127.559286 11.7097853 130.163885 13.373263 127.252327 14.4185221 126.46731 17.3976235 124.568715 14.9654731 121.479236 15.142511 123.216961 12.5944093 122.092584 9.72503741 125.065533 10.5825118 127.460377 8.63226657"></polygon>
                        <polygon id="Fill-291-Copy-7" fill="#FF8975" points="238.088617 39.6430424 240.693216 41.3065202 237.781659 42.3517793 236.996641 45.3308807 235.098047 42.8987303 232.008568 43.0757682 233.746293 40.5276665 232.621916 37.6582946 235.594865 38.515769 237.989709 36.5655238"></polygon>
                        <polygon id="Fill-299-Copy-3" fill="#FEBD0F" points="168.161298 4.90185879 170.509529 0.173305906 172.858329 4.90185879 170.509529 9.12814433"></polygon>
                        <polygon id="Fill-299-Copy-5" fill="#FEBD0F" points="310.568649 97.4012979 312.916881 92.672745 315.265681 97.4012979 312.916881 101.627583"></polygon>
                        <polygon id="Fill-287-Copy" fill="#1CFEFE" points="68.0062772 164.213087 71.8966906 166.698405 67.547545 168.258941 66.3748503 172.70921 63.5388958 169.076256 58.9231512 169.340399 61.5192233 165.534366 59.8400473 161.248691 64.2801435 162.528681 67.857914 159.615191"></polygon>
                        <polygon id="Fill-291-Copy-2" fill="#FF8975" points="108.658532 141.332737 111.263131 142.806436 108.351574 143.732447 107.566556 146.371676 105.667962 144.216998 102.578482 144.373839 104.316208 142.116439 103.191831 139.57442 106.16478 140.334069 108.559624 138.606319"></polygon>
                        <polygon id="Fill-291-Copy-4" fill="#FF8975" points="220.472424 134.634185 223.077022 136.297663 220.165465 137.342922 219.380448 140.322024 217.481853 137.889873 214.392374 138.066911 216.130099 135.518809 215.005722 132.649438 217.978671 133.506912 220.373515 131.556667"></polygon>
                        <polygon id="Fill-291-Copy-5" fill="#FF8975" points="290.112714 155.852808 292.717313 157.516285 289.805756 158.561545 289.020738 161.540646 287.122144 159.108496 284.032664 159.285533 285.77039 156.737432 284.646013 153.86806 287.618961 154.725534 290.013805 152.775289"></polygon>
                        <polygon id="Fill-299-Copy" fill="#FEBD0F" points="80.0822423 179.603689 82.4304739 174.875136 84.779274 179.603689 82.4304739 183.829975"></polygon>
                        <polygon id="Fill-299-Copy-4" fill="#FEBD0F" points="130.755271 141.482249 133.103503 136.753697 135.452303 141.482249 133.103503 145.708535"></polygon>
                        <polygon id="Fill-299-Copy-6" fill="#FEBD0F" points="272.479189 43.9408169 274.82742 39.212264 277.176221 43.9408169 274.82742 48.1671024"></polygon>
                        <path d="M86.2682743,151.772887 C86.2682743,154.134901 84.3441,156.049512 81.96972,156.049512 C79.5964769,156.049512 77.6717342,154.134901 77.6717342,151.772887 C77.6717342,149.410307 79.5964769,147.495696 81.96972,147.495696 C84.3441,147.495696 86.2682743,149.410307 86.2682743,151.772887 Z" id="Stroke-285-Copy" fill="#FFFFFF"></path>
                        <path d="M256.272819,142.924074 C256.272819,145.286088 254.348644,147.2007 251.974264,147.2007 C249.601021,147.2007 247.676279,145.286088 247.676279,142.924074 C247.676279,140.561495 249.601021,138.646883 251.974264,138.646883 C254.348644,138.646883 256.272819,140.561495 256.272819,142.924074 Z" id="Stroke-285-Copy-5" fill="#FFFFFF"></path>
                    </g>
                </g>
            </g>
        </g>
    </g>
</svg>